<svg width="1440" height="1024" viewBox="0 0 1440 1024" fill="none" xmlns="http://www.w3.org/2000/svg">
<rect width="1440" height="1024" fill="#C9F5F9"/>
<path d="M1097.29 614.034C1121.91 603.556 1149.87 615.224 1159.74 640.095C1169.61 664.967 1157.65 693.624 1133.03 704.103C1108.41 714.582 1080.45 702.914 1070.58 678.042C1060.71 653.17 1072.67 624.513 1097.29 614.034Z" fill="black"/>
<path d="M1083.48 641.792C1076.45 658.629 1084.07 677.839 1100.48 684.705L1123.5 694.312C1127.24 695.859 1131.55 694.023 1133.15 690.198L1133.16 690.164L1142.99 666.615C1150.01 649.774 1142.39 630.576 1125.96 623.719C1109.53 616.861 1090.51 624.948 1083.48 641.792L1083.48 641.792ZM1094.27 635.79C1094.77 634.59 1095.26 633.787 1096.01 632.794C1097.1 631.348 1098.94 630.562 1100.45 631.189C1102.27 631.949 1103.03 633.86 1102.18 635.884C1101.78 636.849 1101.45 637.126 1100.86 638.539C1099.12 642.707 1101.01 647.455 1105.07 649.16L1111.44 651.818C1112.01 652.057 1112.67 651.777 1112.92 651.187L1114.99 646.226C1115.76 644.377 1117.84 643.484 1119.64 644.237C1121.45 644.992 1122.26 647.09 1121.49 648.939L1118.98 654.964L1126.41 658.064L1126.42 658.068C1134.13 661.287 1137.7 670.312 1134.4 678.217C1133.9 679.417 1133.42 680.21 1132.67 681.202C1131.58 682.648 1129.73 683.435 1128.23 682.806C1126.41 682.047 1125.65 680.136 1126.49 678.112C1126.9 677.148 1127.23 676.879 1127.81 675.468C1129.55 671.3 1127.67 666.54 1123.61 664.836L1117.2 662.165C1116.63 661.925 1115.97 662.206 1115.72 662.795L1113.64 667.752C1112.87 669.601 1110.81 670.501 1109 669.746C1107.18 668.988 1106.37 666.874 1107.15 665.005L1109.65 659.014L1102.27 655.932L1102.26 655.928C1094.55 652.709 1090.97 643.696 1094.27 635.79L1094.27 635.79Z" fill="#C9F5F9"/>
<path d="M967.853 266.672C941.291 269.905 917.67 250.935 915.094 224.302C912.518 197.668 931.962 173.457 958.524 170.224C985.085 166.991 1008.71 185.961 1011.28 212.594C1013.86 239.227 994.415 263.439 967.853 266.672Z" fill="black"/>
<path d="M988.829 243.84C1000.25 229.615 998.269 209.046 984.402 197.892L964.954 182.273C961.797 179.751 957.142 180.317 954.547 183.549L954.524 183.577L938.546 203.473C927.126 217.704 929.117 238.262 942.998 249.41C956.882 260.56 977.401 258.071 988.83 243.84L988.829 243.84ZM976.796 246.61C975.982 247.624 975.289 248.26 974.295 249.006C972.848 250.093 970.857 250.336 969.583 249.315C968.045 248.08 967.846 246.033 969.22 244.323C969.874 243.508 970.272 243.334 971.23 242.141C974.058 238.62 973.561 233.533 970.13 230.768L964.749 226.447C964.264 226.057 963.551 226.143 963.151 226.641L959.785 230.832C958.53 232.394 956.291 232.678 954.763 231.452C953.234 230.224 953.039 227.984 954.293 226.422L958.381 221.332L952.104 216.291L952.095 216.284C945.579 211.051 944.653 201.39 950.017 194.71C950.83 193.697 951.518 193.07 952.51 192.324C953.958 191.237 955.949 190.994 957.222 192.015C958.76 193.251 958.959 195.297 957.586 197.007C956.932 197.822 956.54 197.988 955.582 199.18C952.754 202.702 953.244 207.798 956.675 210.562L962.084 214.906C962.569 215.295 963.283 215.209 963.682 214.711L967.057 210.528C968.312 208.965 970.542 208.673 972.07 209.9C973.61 211.134 973.795 213.387 972.526 214.966L968.462 220.028L974.701 225.039L974.71 225.046C981.227 230.28 982.16 239.931 976.796 246.61L976.796 246.61Z" fill="#C9F5F9"/>
<path d="M258.102 260.543C282.929 250.564 310.646 262.794 320.009 287.861C329.372 312.927 316.836 341.336 292.008 351.315C267.181 361.294 239.464 349.064 230.101 323.998C220.738 298.932 233.274 270.522 258.102 260.543Z" fill="black"/>
<path d="M243.729 288.016C236.364 304.707 243.589 324.068 259.866 331.264L282.686 341.334C286.387 342.956 290.738 341.207 292.411 337.416L292.426 337.382L302.727 314.036C310.087 297.34 302.857 277.993 286.57 270.805C270.278 263.617 251.097 271.317 243.729 288.016L243.729 288.016ZM254.639 282.233C255.164 281.044 255.67 280.25 256.437 279.273C257.555 277.85 259.416 277.1 260.91 277.759C262.715 278.555 263.435 280.481 262.55 282.488C262.127 283.444 261.788 283.714 261.17 285.115C259.347 289.247 261.14 294.032 265.168 295.818L271.482 298.605C272.052 298.856 272.719 298.589 272.977 298.004L275.147 293.086C275.956 291.253 278.046 290.402 279.839 291.191C281.633 291.983 282.4 294.097 281.591 295.93L278.955 301.902L286.32 305.152L286.331 305.157C293.976 308.53 297.365 317.626 293.907 325.463C293.382 326.652 292.88 327.435 292.114 328.412C290.996 329.836 289.135 330.585 287.642 329.926C285.837 329.13 285.116 327.204 286.002 325.197C286.423 324.242 286.759 323.98 287.376 322.581C289.2 318.449 287.411 313.652 283.383 311.867L277.036 309.066C276.467 308.815 275.8 309.083 275.542 309.667L273.361 314.58C272.552 316.413 270.474 317.271 268.68 316.48C266.875 315.685 266.114 313.556 266.932 311.703L269.553 305.764L262.231 302.533L262.221 302.528C254.574 299.154 251.181 290.071 254.64 282.233L254.639 282.233Z" fill="#C9F5F9"/>
<path d="M149.082 656.659C161.965 680.112 153.144 709.094 129.38 721.394C105.617 733.693 75.9097 724.652 63.0275 701.199C50.1452 677.747 58.9662 648.764 82.7296 636.465C106.493 624.165 136.2 633.207 149.082 656.659Z" fill="black"/>
<path d="M120.085 645.682C102.632 640.37 84.2768 649.864 79.0823 666.885L71.8199 690.747C70.653 694.616 72.9103 698.726 76.8752 699.933L76.91 699.944L101.322 707.374C118.78 712.68 137.122 703.184 142.305 686.152C147.49 669.117 137.547 650.997 120.085 645.682L120.085 645.682ZM127.134 655.821C128.378 656.2 129.226 656.607 130.288 657.251C131.835 658.191 132.802 659.948 132.328 661.51C131.753 663.398 129.928 664.344 127.829 663.705C126.829 663.4 126.52 663.096 125.055 662.65C120.735 661.335 116.199 663.689 114.908 667.902L112.899 674.505C112.717 675.1 113.062 675.73 113.674 675.916L118.817 677.481C120.733 678.065 121.829 680.038 121.26 681.913C120.689 683.789 118.682 684.803 116.766 684.22L110.52 682.319L108.177 690.02L108.173 690.031C105.74 698.026 97.1163 702.48 88.9212 699.986C87.6779 699.608 86.8399 699.203 85.7786 698.559C84.2306 697.62 83.2643 695.862 83.739 694.301C84.3135 692.413 86.1388 691.467 88.2374 692.106C89.2366 692.41 89.5365 692.712 90.9996 693.157C95.3205 694.472 99.8683 692.122 101.158 687.909L103.178 681.272C103.359 680.677 103.014 680.047 102.403 679.861L97.2638 678.284C95.347 677.701 94.2459 675.74 94.8167 673.864C95.3892 671.977 97.412 670.967 99.3495 671.556L105.56 673.447L107.89 665.791L107.893 665.78C110.327 657.784 118.938 653.327 127.134 655.821L127.134 655.821Z" fill="#C9F5F9"/>
<path d="M1235.51 895.043C1258.89 882.013 1287.92 890.651 1300.37 914.337C1312.82 938.022 1303.97 967.786 1280.6 980.815C1257.22 993.845 1228.19 985.207 1215.74 961.522C1203.29 937.836 1212.14 908.073 1235.51 895.043Z" fill="black"/>
<path d="M1224.72 924.109C1219.52 941.595 1229.13 959.89 1246.18 964.977L1270.09 972.089C1273.96 973.232 1278.06 970.948 1279.24 966.976L1279.25 966.941L1286.53 942.483C1291.72 924.992 1282.11 906.71 1265.05 901.634C1247.98 896.557 1229.92 906.614 1224.72 924.109L1224.72 924.109ZM1234.81 916.996C1235.19 915.75 1235.59 914.899 1236.22 913.833C1237.15 912.28 1238.91 911.302 1240.47 911.767C1242.36 912.329 1243.32 914.149 1242.69 916.251C1242.4 917.254 1242.09 917.564 1241.66 919.032C1240.37 923.36 1242.75 927.882 1246.97 929.146L1253.59 931.113C1254.18 931.291 1254.81 930.942 1254.99 930.329L1256.53 925.177C1257.1 923.257 1259.06 922.148 1260.94 922.705C1262.82 923.265 1263.85 925.265 1263.28 927.185L1261.42 933.442L1269.13 935.738L1269.14 935.741C1277.15 938.124 1281.66 946.719 1279.22 954.93C1278.85 956.176 1278.45 957.016 1277.81 958.081C1276.88 959.635 1275.13 960.613 1273.57 960.148C1271.68 959.585 1270.72 957.766 1271.34 955.663C1271.64 954.662 1271.94 954.36 1272.38 952.895C1273.67 948.566 1271.29 944.033 1267.07 942.769L1260.42 940.791C1259.82 940.614 1259.19 940.964 1259.01 941.575L1257.47 946.724C1256.89 948.645 1254.94 949.758 1253.06 949.199C1251.17 948.639 1250.15 946.622 1250.72 944.681L1252.58 938.459L1244.91 936.177L1244.89 936.174C1236.88 933.791 1232.37 925.208 1234.81 916.996L1234.81 916.996Z" fill="#C9F5F9"/>
<path d="M837.977 811.807C843.725 782.95 871.655 764.792 900.361 771.25C929.068 777.708 947.68 806.337 941.932 835.194C936.185 864.051 908.254 882.209 879.548 875.75C850.842 869.292 832.23 840.664 837.977 811.807Z" fill="black"/>
<path d="M854.622 841.562C865.557 858.382 887.725 863.376 904.14 852.722L927.136 837.772C930.855 835.341 931.863 830.283 929.379 826.463L929.357 826.429L914.063 802.903C903.121 786.085 880.961 781.103 864.548 791.773C848.131 802.446 843.682 824.735 854.622 841.562L854.622 841.562ZM855.862 828.04C855.082 826.842 854.656 825.899 854.218 824.605C853.58 822.719 854.01 820.556 855.514 819.577C857.333 818.394 859.539 818.889 860.854 820.912C861.48 821.876 861.525 822.351 862.443 823.762C865.149 827.925 870.633 829.153 874.7 826.52L881.063 822.383C881.637 822.01 881.792 821.236 881.409 820.646L878.187 815.691C876.986 813.843 877.46 811.407 879.265 810.231C881.073 809.056 883.48 809.622 884.681 811.469L888.594 817.487L896.015 812.663L896.026 812.656C903.73 807.647 914.141 809.998 919.276 817.896C920.055 819.094 920.474 820.027 920.912 821.32C921.551 823.206 921.12 825.37 919.616 826.348C917.797 827.531 915.591 827.036 914.276 825.013C913.65 824.05 913.611 823.584 912.695 822.174C909.988 818.01 904.496 816.771 900.43 819.405L894.034 823.563C893.461 823.936 893.306 824.711 893.688 825.3L896.899 830.263C898.1 832.11 897.64 834.54 895.832 835.715C894.015 836.899 891.597 836.318 890.384 834.451L886.493 828.466L879.115 833.262L879.104 833.269C871.399 838.279 860.996 835.938 855.862 828.04L855.862 828.04Z" fill="#C9F5F9"/>
<path d="M246.578 892.548C269.657 879.008 298.878 887.007 311.844 910.413C324.809 933.82 316.611 963.771 293.532 977.31C270.452 990.85 241.232 982.851 228.266 959.445C215.301 936.039 223.499 906.088 246.578 892.548Z" fill="black"/>
<path d="M236.425 921.844C231.608 939.44 241.616 957.52 258.778 962.231L282.836 968.817C286.736 969.874 290.781 967.501 291.875 963.504L291.885 963.469L298.622 938.856C303.433 921.256 293.422 903.189 276.251 898.489C259.076 893.788 241.244 904.239 236.425 921.844L236.425 921.844ZM246.361 914.512C246.704 913.258 247.087 912.398 247.701 911.318C248.597 909.745 250.326 908.729 251.901 909.159C253.804 909.68 254.801 911.478 254.222 913.594C253.945 914.602 253.65 914.92 253.246 916.396C252.053 920.752 254.534 925.22 258.782 926.391L265.439 928.213C266.04 928.378 266.659 928.015 266.828 927.398L268.247 922.214C268.776 920.281 270.717 919.13 272.608 919.646C274.499 920.163 275.57 922.141 275.041 924.073L273.317 930.37L281.081 932.495L281.093 932.498C289.153 934.704 293.849 943.199 291.588 951.461C291.244 952.715 290.864 953.564 290.25 954.643C289.355 956.217 287.625 957.232 286.051 956.802C284.148 956.281 283.151 954.483 283.73 952.367C284.006 951.36 284.299 951.052 284.703 949.577C285.895 945.22 283.417 940.741 279.169 939.57L272.478 937.739C271.879 937.574 271.258 937.938 271.089 938.554L269.659 943.735C269.13 945.668 267.201 946.824 265.31 946.306C263.407 945.787 262.34 943.794 262.875 941.84L264.589 935.579L256.87 933.466L256.859 933.463C248.798 931.256 244.099 922.774 246.361 914.512L246.361 914.512Z" fill="#C9F5F9"/>
<path d="M642.329 211.06C665.879 223.763 674.204 252.892 660.924 276.122C647.643 299.351 617.786 307.884 594.236 295.181C570.686 282.478 562.361 253.349 575.641 230.12C588.922 206.891 618.779 198.357 642.329 211.06Z" fill="black"/>
<path d="M612.018 217.583C594.476 222.596 584.214 240.533 589.092 257.648L595.946 281.631C597.066 285.513 601.194 287.74 605.178 286.601L605.213 286.591L629.749 279.579C647.291 274.558 657.54 256.626 652.648 239.508C647.754 222.387 629.567 212.567 612.018 217.583L612.018 217.583ZM623.441 222.271C624.691 221.914 625.624 221.795 626.866 221.76C628.676 221.71 630.441 222.66 630.891 224.23C631.433 226.127 630.414 227.912 628.305 228.515C627.299 228.802 626.875 228.714 625.403 229.135C621.06 230.376 618.528 234.815 619.732 239.054L621.628 245.69C621.799 246.289 622.431 246.63 623.046 246.454L628.214 244.977C630.141 244.427 632.132 245.489 632.672 247.372C633.211 249.258 632.076 251.199 630.15 251.75L623.873 253.544L626.085 261.284L626.088 261.295C628.385 269.33 623.56 277.752 615.324 280.106C614.074 280.463 613.151 280.578 611.91 280.614C610.1 280.666 608.334 279.714 607.885 278.145C607.343 276.248 608.363 274.462 610.472 273.859C611.476 273.572 611.892 273.663 613.362 273.243C617.705 272.002 620.248 267.559 619.045 263.32L617.138 256.65C616.967 256.052 616.335 255.71 615.721 255.886L610.549 257.352C608.623 257.902 606.634 256.853 606.095 254.968C605.551 253.072 606.701 251.126 608.649 250.569L614.891 248.785L612.691 241.091L612.688 241.079C610.392 233.044 615.204 224.626 623.441 222.272L623.441 222.271Z" fill="#C9F5F9"/>
<path d="M710.782 598.561C737.167 603.01 754.423 627.911 749.324 654.178C744.224 680.446 718.701 698.133 692.316 693.684C665.931 689.234 648.675 664.334 653.775 638.066C658.874 611.799 684.397 594.112 710.782 598.561Z" fill="black"/>
<path d="M684.182 614.49C669.186 624.882 665.243 645.167 675.368 659.802L689.575 680.303C691.885 683.619 696.509 684.399 699.916 682.038L699.945 682.018L720.919 667.483C735.913 657.085 739.846 636.808 729.706 622.176C719.564 607.539 699.184 604.094 684.182 614.49L684.182 614.49ZM696.506 615.254C697.575 614.513 698.42 614.1 699.585 613.668C701.282 613.037 703.26 613.369 704.19 614.711C705.314 616.332 704.924 618.351 703.12 619.6C702.261 620.196 701.831 620.249 700.572 621.121C696.86 623.693 695.892 628.711 698.395 632.337L702.326 638.01C702.681 638.522 703.388 638.642 703.914 638.278L708.332 635.216C709.979 634.075 712.206 634.44 713.323 636.049C714.44 637.661 713.99 639.865 712.344 641.005L706.978 644.724L711.563 651.34L711.57 651.35C716.33 658.218 714.472 667.745 707.431 672.624C706.363 673.365 705.526 673.771 704.363 674.204C702.666 674.835 700.687 674.502 699.757 673.161C698.634 671.539 699.024 669.521 700.827 668.271C701.686 667.676 702.108 667.628 703.366 666.757C707.078 664.185 708.056 659.16 705.553 655.534L701.602 649.832C701.247 649.321 700.538 649.201 700.014 649.564L695.589 652.616C693.942 653.758 691.721 653.404 690.604 651.793C689.479 650.173 689.942 647.96 691.607 646.806L696.943 643.109L692.384 636.531L692.378 636.522C687.617 629.652 689.465 620.133 696.507 615.254L696.506 615.254Z" fill="#C9F5F9"/>
<path d="M1273.66 447.795C1273.78 445.371 1273.46 442.754 1272.6 440.119C1269.97 432.048 1263.5 426.896 1258.18 428.63C1252.82 430.379 1250.63 438.351 1253.26 446.422C1254.11 449.012 1255.34 451.331 1256.85 453.179C1239.77 460.805 1229.72 472.248 1225.74 477.219C1230.26 462.18 1234.49 444.902 1237.62 425.591C1238.4 420.798 1239.07 416.092 1239.63 411.517C1240.52 411.752 1241.43 412.031 1242.42 412.283C1247 413.415 1250.97 413.555 1253.79 413.399C1251.42 412.594 1248.78 411.545 1245.97 410.121C1243.85 409.046 1241.9 407.912 1240.18 406.753C1241.21 397.727 1241.86 389.155 1242.25 381.102C1250.7 391.621 1260.64 402.852 1272.22 414.31C1279.69 421.663 1287.05 428.386 1294.2 434.461C1292.62 434.167 1290.92 433.952 1289.17 433.857C1286.15 433.697 1283.43 433.866 1281.14 434.185C1284.56 434.694 1288.61 435.524 1293.04 436.943C1295.94 437.91 1298.58 438.959 1300.9 440.064C1300.96 440.092 1300.96 440.092 1301.02 440.122C1304.79 443.333 1308.56 446.213 1312.25 449.02C1306.2 447.358 1291.6 444.096 1273.66 447.795Z" fill="black"/>
<path d="M794.291 258.399C796.135 256.821 797.816 254.79 799.144 252.357C803.209 244.903 802.518 236.664 797.607 233.986C792.654 231.284 785.356 235.166 781.291 242.619C779.987 245.01 779.148 247.501 778.84 249.867C761.568 242.672 746.347 243.214 740.002 243.732C754.046 236.702 769.514 227.92 785.706 216.943C789.729 214.222 793.611 211.479 797.325 208.75C797.764 209.557 798.183 210.407 798.679 211.3C800.998 215.409 803.622 218.393 805.67 220.337C804.631 218.062 803.584 215.425 802.692 212.404C802.019 210.124 801.506 207.928 801.17 205.882C808.441 200.436 815.123 195.028 821.247 189.784C819.396 203.15 818.042 218.083 817.657 234.37C817.434 244.85 817.596 254.818 818.081 264.185C817.211 262.834 816.203 261.452 815.068 260.111C813.113 257.805 811.124 255.943 809.319 254.496C811.296 257.331 813.473 260.849 815.484 265.049C816.771 267.822 817.818 270.459 818.608 272.907C818.626 272.967 818.626 272.967 818.645 273.032C818.899 277.981 819.387 282.694 819.877 287.303C816.939 281.767 809.289 268.905 794.291 258.399Z" fill="black"/>
<path d="M433.663 225.795C433.781 223.371 433.457 220.754 432.598 218.119C429.966 210.048 423.5 204.896 418.181 206.63C412.817 208.379 410.633 216.351 413.265 224.422C414.109 227.012 415.344 229.331 416.854 231.179C399.768 238.805 389.717 250.248 385.74 255.219C390.264 240.18 394.49 222.902 397.617 203.591C398.4 198.798 399.068 194.092 399.632 189.517C400.519 189.752 401.426 190.031 402.416 190.283C406.996 191.415 410.967 191.555 413.787 191.399C411.419 190.594 408.782 189.545 405.972 188.121C403.853 187.046 401.903 185.912 400.184 184.753C401.213 175.727 401.865 167.155 402.252 159.102C410.704 169.621 420.637 180.852 432.219 192.31C439.69 199.663 447.051 206.386 454.197 212.461C452.618 212.167 450.921 211.952 449.167 211.857C446.147 211.697 443.429 211.866 441.137 212.185C444.556 212.694 448.609 213.524 453.044 214.943C455.944 215.91 458.58 216.959 460.903 218.064C460.959 218.092 460.959 218.092 461.019 218.122C464.794 221.333 468.557 224.213 472.246 227.02C466.202 225.358 451.597 222.096 433.663 225.795Z" fill="black"/>
<path d="M274.663 594.795C274.781 592.371 274.457 589.754 273.598 587.119C270.966 579.048 264.5 573.896 259.181 575.63C253.817 577.379 251.633 585.351 254.265 593.422C255.109 596.012 256.344 598.331 257.854 600.179C240.768 607.805 230.717 619.248 226.74 624.219C231.264 609.18 235.49 591.902 238.617 572.591C239.4 567.798 240.068 563.092 240.632 558.517C241.519 558.752 242.426 559.031 243.416 559.283C247.996 560.415 251.967 560.555 254.787 560.399C252.419 559.594 249.782 558.545 246.972 557.121C244.853 556.046 242.903 554.912 241.184 553.753C242.213 544.727 242.865 536.155 243.252 528.102C251.704 538.621 261.637 549.852 273.219 561.31C280.69 568.663 288.051 575.386 295.197 581.461C293.618 581.167 291.921 580.952 290.167 580.857C287.147 580.697 284.429 580.866 282.137 581.185C285.556 581.694 289.609 582.524 294.044 583.943C296.944 584.91 299.58 585.959 301.903 587.064C301.959 587.092 301.959 587.092 302.019 587.122C305.794 590.333 309.557 593.213 313.246 596.02C307.202 594.358 292.597 591.096 274.663 594.795Z" fill="black"/>
<path d="M1382.66 862.795C1382.78 860.371 1382.46 857.754 1381.6 855.119C1378.97 847.048 1372.5 841.896 1367.18 843.63C1361.82 845.379 1359.63 853.351 1362.26 861.422C1363.11 864.012 1364.34 866.331 1365.85 868.179C1348.77 875.805 1338.72 887.248 1334.74 892.219C1339.26 877.18 1343.49 859.902 1346.62 840.591C1347.4 835.798 1348.07 831.092 1348.63 826.517C1349.52 826.752 1350.43 827.031 1351.42 827.283C1356 828.415 1359.97 828.555 1362.79 828.399C1360.42 827.594 1357.78 826.545 1354.97 825.121C1352.85 824.046 1350.9 822.912 1349.18 821.753C1350.21 812.727 1350.86 804.155 1351.25 796.102C1359.7 806.621 1369.64 817.852 1381.22 829.31C1388.69 836.663 1396.05 843.386 1403.2 849.461C1401.62 849.167 1399.92 848.952 1398.17 848.857C1395.15 848.697 1392.43 848.866 1390.14 849.185C1393.56 849.694 1397.61 850.524 1402.04 851.943C1404.94 852.91 1407.58 853.959 1409.9 855.064C1409.96 855.092 1409.96 855.092 1410.02 855.122C1413.79 858.333 1417.56 861.213 1421.25 864.02C1415.2 862.358 1400.6 859.096 1382.66 862.795Z" fill="black"/>
<path d="M803.663 953.795C803.781 951.371 803.457 948.754 802.598 946.119C799.966 938.048 793.5 932.896 788.181 934.63C782.817 936.379 780.633 944.351 783.265 952.422C784.109 955.012 785.344 957.331 786.854 959.179C769.768 966.805 759.717 978.248 755.74 983.219C760.264 968.18 764.49 950.902 767.617 931.591C768.4 926.798 769.068 922.092 769.632 917.517C770.519 917.752 771.426 918.031 772.416 918.283C776.996 919.415 780.967 919.555 783.787 919.399C781.419 918.594 778.782 917.545 775.972 916.121C773.853 915.046 771.903 913.912 770.184 912.753C771.213 903.727 771.865 895.155 772.252 887.102C780.704 897.621 790.637 908.852 802.219 920.31C809.69 927.663 817.051 934.386 824.197 940.461C822.618 940.167 820.921 939.952 819.167 939.857C816.147 939.697 813.429 939.866 811.137 940.185C814.556 940.694 818.609 941.524 823.044 942.943C825.944 943.91 828.58 944.959 830.903 946.064C830.959 946.092 830.959 946.092 831.019 946.122C834.794 949.333 838.557 952.213 842.246 955.02C836.202 953.358 821.597 950.096 803.663 953.795Z" fill="black"/>
<path d="M431.951 896.018C430.596 898.032 429.519 900.438 428.89 903.137C426.964 911.405 429.83 919.16 435.278 920.43C440.774 921.71 446.768 916.019 448.695 907.751C449.312 905.098 449.456 902.474 449.12 900.111C467.687 902.43 482.209 897.842 488.186 895.647C476.531 906.173 463.971 918.769 451.3 933.673C448.15 937.37 445.143 941.05 442.292 944.673C441.654 944.013 441.023 943.305 440.307 942.577C436.973 939.237 433.648 937.062 431.155 935.736C432.764 937.651 434.477 939.913 436.144 942.586C437.402 944.602 438.483 946.582 439.354 948.464C433.801 955.654 428.807 962.65 424.307 969.341C422.52 955.965 419.835 941.214 415.855 925.416C413.269 915.257 410.45 905.695 407.48 896.798C408.68 897.868 410.02 898.929 411.472 899.919C413.972 901.619 416.386 902.881 418.512 903.794C415.85 901.59 412.812 898.781 409.752 895.272C407.771 892.944 406.058 890.682 404.642 888.534C404.609 888.481 404.609 888.481 404.574 888.424C403.006 883.722 401.277 879.311 399.573 875C403.884 879.55 414.692 889.9 431.951 896.018Z" fill="black"/>
<path d="M600.062 540.157C597.936 538.986 595.443 538.126 592.699 537.739C584.292 536.554 576.822 540.097 576.041 545.637C575.254 551.224 581.454 556.69 589.861 557.875C592.558 558.255 595.184 558.165 597.508 557.621C596.845 576.321 602.704 590.379 605.42 596.137C593.901 585.461 580.241 574.069 564.271 562.77C560.31 559.96 556.377 557.291 552.516 554.774C553.117 554.08 553.766 553.388 554.428 552.61C557.458 548.994 559.33 545.488 560.429 542.887C558.665 544.66 556.564 546.567 554.05 548.465C552.152 549.896 550.276 551.149 548.48 552.183C540.825 547.291 533.413 542.937 526.35 539.048C539.514 536.081 553.969 532.098 569.351 526.732C579.24 523.255 588.515 519.599 597.113 515.852C596.154 517.141 595.216 518.57 594.359 520.104C592.888 522.746 591.844 525.262 591.124 527.461C593.083 524.613 595.611 521.338 598.835 517.979C600.979 515.799 603.08 513.892 605.093 512.291C605.143 512.254 605.143 512.254 605.197 512.213C609.74 510.235 613.981 508.121 618.124 506.041C613.974 510.739 604.624 522.423 600.062 540.157Z" fill="black"/>
<path d="M723.974 802.954C723.059 805.202 722.496 807.778 722.432 810.549C722.237 819.036 726.629 826.042 732.221 826.17C737.862 826.3 742.567 819.504 742.762 811.016C742.825 808.293 742.429 805.696 741.617 803.451C760.266 801.925 773.543 794.465 778.945 791.095C769.688 803.781 759.969 818.679 750.613 835.859C748.284 840.121 746.093 844.338 744.044 848.468C743.284 847.951 742.522 847.388 741.671 846.822C737.726 844.234 734.026 842.785 731.314 841.996C733.281 843.541 735.421 845.405 737.599 847.681C739.242 849.398 740.705 851.115 741.942 852.779C737.977 860.952 734.519 868.822 731.481 876.291C726.997 863.564 721.353 849.673 714.228 835.022C709.62 825.607 704.905 816.823 700.179 808.721C701.572 809.523 703.101 810.288 704.724 810.96C707.52 812.113 710.141 812.855 712.408 813.314C709.352 811.7 705.803 809.572 702.091 806.763C699.676 804.888 697.536 803.024 695.711 801.211C695.668 801.167 695.668 801.167 695.622 801.118C693.126 796.836 690.531 792.872 687.982 789C693.132 792.573 705.828 800.495 723.974 802.954Z" fill="black"/>
<path d="M1178.66 103.795C1178.78 101.371 1178.46 98.7541 1177.6 96.1192C1174.97 88.0476 1168.5 82.8958 1163.18 84.6298C1157.82 86.3787 1155.63 94.3509 1158.26 102.422C1159.11 105.012 1160.34 107.331 1161.85 109.179C1144.77 116.805 1134.72 128.248 1130.74 133.219C1135.26 118.18 1139.49 100.902 1142.62 81.591C1143.4 76.7978 1144.07 72.0921 1144.63 67.517C1145.52 67.7519 1146.43 68.031 1147.42 68.2828C1152 69.415 1155.97 69.5548 1158.79 69.3988C1156.42 68.5939 1153.78 67.5451 1150.97 66.1208C1148.85 65.0461 1146.9 63.9119 1145.18 62.7526C1146.21 53.7267 1146.86 45.1551 1147.25 37.1016C1155.7 47.6207 1165.64 58.8525 1177.22 70.3097C1184.69 77.6635 1192.05 84.3859 1199.2 90.4613C1197.62 90.1668 1195.92 89.9523 1194.17 89.8574C1191.15 89.6968 1188.43 89.866 1186.14 90.1853C1189.56 90.6938 1193.61 91.524 1198.04 92.9429C1200.94 93.91 1203.58 94.9587 1205.9 96.0636C1205.96 96.0916 1205.96 96.0917 1206.02 96.1223C1209.79 99.3333 1213.56 102.213 1217.25 105.02C1211.2 103.358 1196.6 100.096 1178.66 103.795Z" fill="black"/>
<path d="M1057 543.832L1091.95 545.646L1092.73 530.666L1127.68 532.481C1149.74 533.626 1168.56 516.668 1169.7 494.608L1173.33 424.702L1103.43 421.073C1081.37 419.928 1062.55 436.886 1061.41 458.946L1057 543.832ZM1067.5 534.364L1071.39 459.465C1072.25 442.947 1086.39 430.203 1102.91 431.06L1162.83 434.17L1159.72 494.089C1158.86 510.607 1144.72 523.351 1128.2 522.494L1093.25 520.68L1083.26 520.161L1082.74 530.148L1082.48 535.141L1067.5 534.364ZM1083.78 510.175L1128.72 512.507C1136.93 512.934 1144.05 506.519 1144.48 498.305L1146.55 458.359C1146.98 450.145 1140.56 443.028 1132.35 442.602L1107.38 441.306C1099.17 440.879 1092.05 447.294 1091.62 455.508C1091.43 459.346 1092.76 462.91 1095.04 465.699C1092.49 468.237 1090.79 471.643 1090.59 475.481C1090.16 483.695 1096.58 490.812 1104.79 491.238L1124.67 492.27L1125.18 482.284L1105.31 481.252C1102.49 481.105 1100.43 478.821 1100.57 475.999C1100.72 473.178 1103.01 471.119 1105.83 471.265L1125.7 472.297L1125.8 472.302L1126.32 462.315L1106.35 461.279C1103.52 461.132 1101.46 458.848 1101.61 456.026C1101.76 453.205 1104.04 451.146 1106.86 451.292L1131.83 452.588C1134.65 452.735 1136.71 455.019 1136.56 457.841L1134.49 497.787C1134.34 500.608 1132.06 502.667 1129.24 502.521L1084.3 500.188L1083.78 510.175Z" fill="black"/>
<path d="M816.9 542L800.705 573.028L814.002 579.968L797.807 610.996C787.585 630.579 795.175 654.743 814.758 664.965L876.813 697.356L909.204 635.301C919.425 615.718 911.835 591.553 892.253 581.332L816.9 542ZM821.138 555.492L887.625 590.197C902.288 597.85 907.992 616.011 900.339 630.674L872.575 683.864L819.385 656.1C804.722 648.447 799.018 630.286 806.672 615.623L822.867 584.596L827.494 575.731L818.629 571.103L814.197 568.79L821.138 555.492ZM836.359 580.358L815.537 620.251C811.731 627.542 814.602 636.683 821.893 640.489L857.353 658.998C864.645 662.804 873.786 659.933 877.592 652.641L889.16 630.479C892.966 623.188 890.095 614.046 882.803 610.24C879.396 608.462 875.599 608.195 872.117 609.102C870.871 605.727 868.48 602.764 865.073 600.986C857.782 597.18 848.641 600.051 844.835 607.343L835.625 624.986L844.49 629.613L853.7 611.97C855.007 609.465 857.941 608.544 860.446 609.851C862.95 611.158 863.872 614.093 862.565 616.597L853.355 634.24L853.31 634.327L862.175 638.954L871.43 621.224C872.737 618.72 875.671 617.798 878.176 619.105C880.68 620.413 881.602 623.347 880.295 625.852L868.727 648.014C867.419 650.519 864.485 651.44 861.981 650.133L826.521 631.624C824.016 630.317 823.094 627.382 824.402 624.878L845.224 584.985L836.359 580.358Z" fill="black"/>
<path d="M142.755 185.055L110.031 197.47L115.351 211.494L82.6269 223.909C61.9732 231.744 51.5805 254.843 59.4159 275.496L84.2451 340.945L149.694 316.116C170.347 308.28 180.74 285.182 172.905 264.528L142.755 185.055ZM136.952 197.952L163.555 268.075C169.422 283.54 161.611 300.899 146.147 306.766L90.0478 328.048L68.7656 271.949C62.8989 256.485 70.7094 239.126 86.1739 233.259L118.898 220.844L128.248 217.297L124.701 207.947L122.927 203.273L136.952 197.952ZM131.795 226.647L89.721 242.609C82.0309 245.526 78.0994 254.264 81.0168 261.954L95.2049 299.353C98.1223 307.043 106.86 310.975 114.55 308.057L137.925 299.19C145.615 296.272 149.546 287.534 146.629 279.844C145.266 276.251 142.606 273.527 139.402 271.891C140.714 268.541 140.898 264.738 139.535 261.145C136.617 253.455 127.88 249.523 120.189 252.441L101.581 259.5L105.128 268.85L123.737 261.79C126.378 260.788 129.183 262.05 130.185 264.692C131.187 267.333 129.925 270.138 127.284 271.14L108.675 278.2L108.584 278.234L112.131 287.584L130.831 280.49C133.472 279.488 136.277 280.75 137.279 283.391C138.281 286.033 137.019 288.838 134.378 289.84L111.003 298.707C108.362 299.709 105.557 298.447 104.555 295.806L90.3666 258.407C89.3645 255.765 90.6265 252.961 93.268 251.958L135.342 235.997L131.795 226.647Z" fill="black"/>
<path d="M39 898.544L68.2722 917.731L76.4952 905.185L105.767 924.372C124.242 936.482 149.04 931.321 161.149 912.846L199.523 854.301L140.978 815.928C122.504 803.818 97.7063 808.979 85.5966 827.454L39 898.544ZM52.8455 895.662L93.9601 832.936C103.027 819.103 121.663 815.224 135.497 824.291L185.678 857.183L152.786 907.364C143.719 921.197 125.083 925.076 111.249 916.009L81.9771 896.822L73.6136 891.34L68.1317 899.703L65.3907 903.885L52.8455 895.662ZM79.0956 882.976L116.731 907.645C123.61 912.154 132.991 910.202 137.5 903.323L159.427 869.869C163.936 862.99 161.984 853.609 155.105 849.101L134.196 835.396C127.317 830.887 117.937 832.839 113.428 839.718C111.321 842.932 110.68 846.685 111.238 850.239C107.756 851.146 104.571 853.231 102.464 856.445C97.9554 863.324 99.9077 872.704 106.787 877.213L123.432 888.124L128.914 879.76L112.268 868.85C109.906 867.301 109.279 864.29 110.828 861.927C112.376 859.564 115.388 858.938 117.75 860.486L134.396 871.397L134.477 871.45L139.959 863.087L123.232 852.123C120.87 850.574 120.243 847.563 121.792 845.2C123.34 842.837 126.352 842.211 128.714 843.759L149.623 857.464C151.986 859.013 152.613 862.024 151.064 864.387L129.136 897.841C127.587 900.204 124.576 900.83 122.213 899.282L84.5776 874.613L79.0956 882.976Z" fill="black"/>
<path d="M1078 886.528L1111.47 896.77L1115.86 882.427L1149.33 892.669C1170.45 899.133 1192.82 887.248 1199.28 866.125L1219.76 799.189L1152.83 778.705C1131.7 772.241 1109.34 784.126 1102.87 805.249L1078 886.528ZM1090.49 879.892L1112.44 808.175C1117.28 792.359 1134.09 783.427 1149.9 788.267L1207.28 805.825L1189.72 863.199C1184.88 879.015 1168.07 887.947 1152.25 883.107L1118.78 872.865L1109.22 869.938L1106.3 879.501L1104.83 884.282L1090.49 879.892ZM1112.15 860.376L1155.18 873.544C1163.04 875.951 1171.5 871.455 1173.91 863.591L1185.62 825.342C1188.02 817.477 1183.53 809.016 1175.66 806.609L1151.76 799.293C1143.89 796.886 1135.43 801.382 1133.02 809.247C1131.9 812.922 1132.33 816.704 1133.86 819.961C1130.77 821.804 1128.3 824.697 1127.17 828.371C1124.76 836.236 1129.26 844.697 1137.12 847.104L1156.16 852.928L1159.08 843.366L1140.05 837.542C1137.35 836.715 1135.91 833.999 1136.73 831.298C1137.56 828.596 1140.28 827.153 1142.98 827.98L1162.01 833.804L1162.1 833.832L1165.03 824.27L1145.9 818.417C1143.2 817.591 1141.76 814.875 1142.59 812.173C1143.41 809.472 1146.13 808.028 1148.83 808.855L1172.74 816.171C1175.44 816.998 1176.88 819.714 1176.05 822.415L1164.35 860.664C1163.52 863.366 1160.81 864.809 1158.1 863.982L1115.07 850.814L1112.15 860.376Z" fill="black"/>
<path d="M567 880V915H582V950C582 972.09 599.91 990 622 990H692V920C692 897.91 674.09 880 652 880H567ZM577 890H652C668.54 890 682 903.46 682 920V980H622C605.46 980 592 966.54 592 950V915V905H582H577V890ZM602 905V950C602 958.225 608.775 965 617 965H657C665.225 965 672 958.225 672 950V925C672 916.775 665.225 910 657 910C653.157 910 649.667 911.521 647 913.936C644.333 911.521 640.843 910 637 910C628.775 910 622 916.775 622 925V944.902H632V925C632 922.175 634.175 920 637 920C639.825 920 642 922.175 642 925V944.902V945H652V925C652 922.175 654.175 920 657 920C659.825 920 662 922.175 662 925V950C662 952.825 659.825 955 657 955H617C614.175 955 612 952.825 612 950V905H602Z" fill="black"/>
<path d="M1214 263.179L1248.77 267.184L1250.49 252.283L1285.26 256.289C1307.2 258.817 1327.04 243.074 1329.57 221.129L1337.58 151.589L1268.04 143.578C1246.1 141.05 1226.26 156.792 1223.73 178.737L1214 263.179ZM1225.08 254.389L1233.66 179.882C1235.56 163.45 1250.47 151.619 1266.9 153.512L1326.5 160.379L1319.64 219.985C1317.74 236.416 1302.83 248.247 1286.4 246.354L1251.63 242.349L1241.7 241.204L1240.55 251.138L1239.98 256.106L1225.08 254.389ZM1242.84 231.27L1287.55 236.42C1295.72 237.361 1303.22 231.406 1304.16 223.235L1308.74 183.498C1309.68 175.327 1303.73 167.821 1295.56 166.88L1270.72 164.019C1262.55 163.077 1255.04 169.033 1254.1 177.204C1253.66 181.021 1254.77 184.663 1256.87 187.588C1254.16 189.961 1252.25 193.254 1251.81 197.072C1250.87 205.243 1256.83 212.749 1265 213.69L1284.77 215.968L1285.92 206.034L1266.14 203.756C1263.34 203.433 1261.43 201.023 1261.75 198.217C1262.07 195.41 1264.48 193.498 1267.29 193.822L1287.06 196.099L1287.16 196.111L1288.3 186.176L1268.43 183.887C1265.63 183.564 1263.71 181.155 1264.04 178.348C1264.36 175.541 1266.77 173.63 1269.58 173.953L1294.41 176.814C1297.22 177.138 1299.13 179.547 1298.81 182.354L1294.23 222.091C1293.91 224.897 1291.5 226.809 1288.69 226.486L1243.99 221.336L1242.84 231.27Z" fill="black"/>
<path d="M452.008 434.293L482.664 417.406L475.427 404.267L506.083 387.38C525.432 376.722 532.478 352.393 521.819 333.044L488.045 271.731L426.732 305.506C407.383 316.164 400.337 340.493 410.996 359.842L452.008 434.293ZM455.942 420.709L419.755 355.017C411.774 340.529 417.07 322.245 431.557 314.265L484.111 285.315L513.061 337.869C521.041 352.356 515.746 370.64 501.258 378.621L470.602 395.508L461.843 400.333L466.668 409.092L469.08 413.472L455.942 420.709ZM457.018 391.574L496.433 369.862C503.638 365.893 506.303 356.69 502.334 349.486L483.035 314.45C479.066 307.246 469.863 304.581 462.659 308.549L440.761 320.611C433.557 324.58 430.892 333.783 434.86 340.987C436.714 344.353 439.73 346.677 443.132 347.847C442.304 351.348 442.656 355.139 444.51 358.505C448.479 365.709 457.682 368.375 464.886 364.406L482.319 354.804L477.494 346.045L460.061 355.647C457.587 357.01 454.632 356.155 453.269 353.68C451.906 351.206 452.762 348.251 455.236 346.888L472.669 337.286L472.754 337.238L467.929 328.479L450.411 338.129C447.937 339.492 444.982 338.637 443.619 336.162C442.256 333.688 443.112 330.733 445.586 329.37L467.484 317.308C469.958 315.945 472.913 316.8 474.276 319.275L493.576 354.311C494.939 356.785 494.083 359.74 491.608 361.103L452.193 382.815L457.018 391.574Z" fill="black"/>
<path d="M649 504.724L683.923 507.047L684.918 492.08L719.841 494.403C741.882 495.869 760.941 479.187 762.407 457.145L767.053 387.3L697.207 382.654C675.166 381.189 656.107 397.871 654.641 419.912L649 504.724ZM659.642 495.41L664.619 420.575C665.716 404.072 680.04 391.535 696.543 392.632L756.411 396.614L752.429 456.482C751.332 472.985 737.008 485.522 720.505 484.425L685.582 482.102L675.604 481.439L674.94 491.417L674.609 496.406L659.642 495.41ZM676.268 471.461L721.168 474.447C729.375 474.993 736.585 468.682 737.131 460.475L739.785 420.564C740.331 412.357 734.02 405.147 725.814 404.601L700.869 402.942C692.662 402.396 685.452 408.707 684.906 416.914C684.651 420.748 685.937 424.332 688.17 427.153C685.583 429.653 683.834 433.035 683.579 436.87C683.033 445.076 689.344 452.286 697.551 452.832L717.409 454.153L718.073 444.175L698.214 442.854C695.395 442.667 693.37 440.352 693.557 437.533C693.745 434.714 696.059 432.689 698.878 432.876L718.736 434.197L718.834 434.203L719.497 424.225L699.542 422.898C696.723 422.711 694.697 420.396 694.884 417.577C695.072 414.758 697.386 412.733 700.205 412.92L725.15 414.579C727.969 414.767 729.995 417.081 729.807 419.9L727.153 459.812C726.965 462.631 724.651 464.656 721.832 464.469L676.931 461.483L676.268 471.461Z" fill="black"/>
<path d="M354 842.724L388.923 845.047L389.918 830.08L424.841 832.403C446.882 833.869 465.941 817.187 467.407 795.145L472.053 725.3L402.207 720.654C380.166 719.189 361.107 735.871 359.641 757.912L354 842.724ZM364.642 833.41L369.619 758.575C370.716 742.072 385.04 729.535 401.543 730.632L461.411 734.614L457.429 794.482C456.332 810.985 442.008 823.523 425.505 822.425L390.582 820.102L380.604 819.439L379.94 829.417L379.609 834.406L364.642 833.41ZM381.268 809.461L426.168 812.447C434.375 812.993 441.585 806.682 442.131 798.475L444.785 758.564C445.331 750.357 439.02 743.147 430.814 742.601L405.869 740.942C397.662 740.396 390.452 746.707 389.906 754.914C389.651 758.748 390.937 762.332 393.17 765.153C390.583 767.653 388.834 771.035 388.579 774.87C388.033 783.076 394.344 790.286 402.551 790.832L422.409 792.153L423.073 782.175L403.214 780.854C400.395 780.667 398.37 778.352 398.557 775.533C398.745 772.714 401.059 770.689 403.878 770.876L423.736 772.197L423.834 772.203L424.497 762.225L404.542 760.898C401.723 760.711 399.697 758.396 399.884 755.577C400.072 752.758 402.386 750.733 405.205 750.92L430.15 752.579C432.969 752.767 434.995 755.081 434.807 757.9L432.153 797.812C431.965 800.631 429.651 802.656 426.832 802.469L381.931 799.483L381.268 809.461Z" fill="black"/>
<path d="M652 43V78H667V113C667 135.09 684.91 153 707 153H777V83C777 60.91 759.09 43 737 43H652ZM662 53H737C753.54 53 767 66.46 767 83V143H707C690.46 143 677 129.54 677 113V78V68H667H662V53ZM687 68V113C687 121.225 693.775 128 702 128H742C750.225 128 757 121.225 757 113V88C757 79.7751 750.225 73 742 73C738.157 73 734.667 74.5206 732 76.9355C729.333 74.5206 725.843 73 722 73C713.775 73 707 79.7751 707 88V107.902H717V88C717 85.1749 719.175 83 722 83C724.825 83 727 85.1749 727 88V107.902V108H737V88C737 85.1749 739.175 83 742 83C744.825 83 747 85.1749 747 88V113C747 115.825 744.825 118 742 118H702C699.175 118 697 115.825 697 113V68H687Z" fill="black"/>
<path d="M1078.02 302.827C1079.75 309.595 1075.75 316.462 1069.08 318.163C1062.41 319.865 1055.61 315.756 1053.88 308.988C1052.15 302.219 1056.15 295.35 1062.82 293.648C1069.49 291.946 1076.29 296.058 1078.02 302.827ZM1112.28 262.839C1126.59 259.186 1141.18 267.12 1146.39 280.808L1164.99 275.443C1161.51 265.255 1154.96 256.862 1146.69 251.077C1144.45 253.746 1141.4 255.757 1137.79 256.678C1128.52 259.044 1119.06 253.332 1116.66 243.923C1116.54 243.423 1116.43 242.929 1116.35 242.435C1113.39 242.613 1110.4 243.07 1107.43 243.83C1099.97 245.733 1093.38 249.312 1087.93 254.067L1101.43 268.276C1104.53 265.774 1108.18 263.884 1112.28 262.839ZM1136.57 251.894C1143.24 250.193 1147.24 243.329 1145.51 236.56C1143.78 229.789 1136.98 225.68 1130.31 227.381C1123.65 229.083 1119.65 235.949 1121.37 242.72C1123.1 249.489 1129.9 253.596 1136.57 251.894ZM1154.61 319.947C1147.94 321.648 1143.94 328.515 1145.67 335.283C1147.4 342.054 1154.2 346.164 1160.86 344.462C1167.53 342.761 1171.54 335.893 1169.81 329.122C1168.08 322.354 1161.28 318.245 1154.61 319.947ZM1091.6 298.302C1089.29 289.246 1091.42 280.114 1096.6 273.263L1082.52 259.63C1075.74 267.838 1071.7 278.247 1071.36 289.25C1076.77 291.097 1081.19 295.605 1082.73 301.625C1084.21 307.423 1082.67 313.272 1079.1 317.461C1084.76 326.355 1093.09 333.086 1102.65 336.788L1107.63 317.714C1099.96 314.136 1093.88 307.22 1091.6 298.302ZM1153.39 315.163C1156.19 314.447 1159.02 314.473 1161.66 315.116C1166.91 305.525 1168.99 294.112 1166.86 282.604L1148.02 287.014C1150.22 301.662 1141.18 315.832 1126.74 319.518C1122.74 320.539 1118.72 320.652 1114.88 319.989L1109.79 338.931C1116.78 340.452 1124.21 340.414 1131.6 338.529C1134.79 337.715 1137.82 336.588 1140.68 335.199C1139.07 326.219 1144.54 317.42 1153.39 315.163Z" fill="black"/>
<path d="M825.896 423.717C830.783 428.709 830.761 436.656 825.846 441.469C820.927 446.285 812.981 446.138 808.094 441.146C803.207 436.154 803.226 428.205 808.145 423.389C813.061 418.577 821.008 418.725 825.896 423.717ZM835.502 371.945C846.058 361.611 862.658 361.166 874.024 370.401L887.436 356.434C879.314 349.365 869.439 345.384 859.384 344.522C858.786 347.953 857.155 351.221 854.493 353.827C847.657 360.52 836.61 360.317 829.817 353.378C829.456 353.009 829.118 352.635 828.798 352.249C826.325 353.887 823.972 355.777 821.777 357.927C816.278 363.311 812.367 369.711 810.04 376.554L828.842 382.085C830.266 378.369 832.483 374.901 835.502 371.945ZM851.04 350.3C855.955 345.487 855.978 337.541 851.091 332.549C846.202 327.556 838.256 327.409 833.341 332.222C828.423 337.036 828.402 344.984 833.291 349.977C838.178 354.969 846.122 355.114 851.04 350.3ZM900.752 400.151C895.836 404.963 895.815 412.91 900.702 417.902C905.591 422.896 913.537 423.043 918.452 418.23C923.37 413.416 923.393 405.467 918.504 400.473C913.617 395.482 905.669 395.336 900.752 400.151ZM835.385 412.993C828.846 406.315 826.106 397.349 827.163 388.82L808.145 384.079C806.385 394.584 808.111 405.613 813.325 415.308C818.937 414.193 825.024 415.877 829.37 420.316C833.556 424.592 835.151 430.427 834.161 435.841C843.521 440.699 854.098 442.352 864.226 440.765L858.981 421.761C850.554 422.506 841.824 419.57 835.385 412.993ZM897.298 396.623C899.368 394.597 901.828 393.202 904.434 392.436C904.172 381.505 900.249 370.588 892.645 361.693L878.543 374.956C887.792 386.527 887.073 403.318 876.424 413.743C873.472 416.634 870.048 418.747 866.396 420.096L871.48 439.04C878.297 436.85 884.706 433.095 890.151 427.764C892.505 425.459 894.566 422.963 896.343 420.33C890.449 413.365 890.776 403.009 897.298 396.623Z" fill="black"/>
<path d="M109.019 112.827C110.747 119.595 106.746 126.462 100.08 128.163C93.4099 129.865 86.6074 125.756 84.8799 118.988C83.1522 112.219 87.1529 105.35 93.8232 103.648C100.489 101.946 107.292 106.058 109.019 112.827ZM143.278 72.8394C157.591 69.1862 172.179 77.1202 177.387 90.8077L195.992 85.4427C192.507 75.2552 185.956 66.8619 177.687 61.077C175.45 63.746 172.401 65.7567 168.792 66.6778C159.521 69.0438 150.064 63.3317 147.663 53.9225C147.535 53.4228 147.431 52.9293 147.347 52.4351C144.386 52.6129 141.403 53.0699 138.426 53.8297C130.969 55.7329 124.377 59.3118 118.934 64.0672L132.433 78.2758C135.527 75.7743 139.184 73.8842 143.278 72.8394ZM167.571 61.8944C174.236 60.1932 178.238 53.3286 176.511 46.5599C174.783 39.7889 167.98 35.6796 161.314 37.3808C154.647 39.0826 150.645 45.9494 152.373 52.7203C154.101 59.4891 160.903 63.5961 167.571 61.8944ZM185.607 129.947C178.942 131.648 174.941 138.515 176.668 145.283C178.396 152.054 185.199 156.164 191.864 154.462C198.532 152.761 202.536 145.893 200.807 139.122C199.08 132.354 192.275 128.245 185.607 129.947ZM122.605 108.302C120.294 99.2462 122.416 90.1137 127.604 83.2628L113.523 69.6299C106.736 77.838 102.701 88.2473 102.355 99.2498C107.771 101.097 112.194 105.605 113.73 111.625C115.21 117.423 113.666 123.272 110.096 127.461C115.761 136.355 124.086 143.086 133.646 146.788L138.63 127.714C130.965 124.136 124.881 117.22 122.605 108.302ZM184.386 125.163C187.193 124.447 190.021 124.473 192.66 125.116C197.911 115.525 199.988 104.112 197.865 92.6039L179.015 97.0142C181.22 111.662 172.183 125.832 157.743 129.518C153.74 130.539 149.717 130.652 145.881 129.989L140.787 148.931C147.784 150.452 155.212 150.414 162.596 148.529C165.788 147.715 168.822 146.588 171.679 145.199C170.069 136.219 175.542 127.42 184.386 125.163Z" fill="black"/>
<path d="M69.0194 485.827C70.7469 492.595 66.7457 499.462 60.0801 501.163C53.4099 502.865 46.6074 498.756 44.8799 491.988C43.1522 485.219 47.1529 478.35 53.8232 476.648C60.4887 474.946 67.2918 479.058 69.0194 485.827ZM103.278 445.839C117.591 442.186 132.179 450.12 137.387 463.808L155.992 458.443C152.507 448.255 145.956 439.862 137.687 434.077C135.45 436.746 132.401 438.757 128.792 439.678C119.521 442.044 110.064 436.332 107.663 426.923C107.535 426.423 107.431 425.929 107.347 425.435C104.386 425.613 101.403 426.07 98.4258 426.83C90.9689 428.733 84.3767 432.312 78.9343 437.067L92.4326 451.276C95.527 448.774 99.1839 446.884 103.278 445.839ZM127.571 434.894C134.236 433.193 138.238 426.329 136.511 419.56C134.783 412.789 127.98 408.68 121.314 410.381C114.647 412.083 110.645 418.949 112.373 425.72C114.101 432.489 120.903 436.596 127.571 434.894ZM145.607 502.947C138.942 504.648 134.941 511.515 136.668 518.283C138.396 525.054 145.199 529.164 151.864 527.462C158.532 525.761 162.536 518.893 160.807 512.122C159.08 505.354 152.275 501.245 145.607 502.947ZM82.6049 481.302C80.2936 472.246 82.4159 463.114 87.6041 456.263L73.5233 442.63C66.7359 450.838 62.7014 461.247 62.3552 472.25C67.7708 474.097 72.1937 478.605 73.73 484.625C75.2098 490.423 73.6663 496.272 70.096 500.461C75.7615 509.355 84.0856 516.086 93.6458 519.788L98.6304 500.714C90.9646 497.136 84.8811 490.22 82.6049 481.302ZM144.386 498.163C147.193 497.447 150.021 497.473 152.66 498.116C157.911 488.525 159.988 477.112 157.865 465.604L139.015 470.014C141.22 484.662 132.183 498.832 117.743 502.518C113.74 503.539 109.717 503.652 105.881 502.989L100.787 521.931C107.784 523.452 115.212 523.414 122.596 521.529C125.788 520.715 128.822 519.588 131.679 518.199C130.069 509.219 135.542 500.42 144.386 498.163Z" fill="black"/>
<path d="M1297.02 558.827C1298.75 565.595 1294.75 572.462 1288.08 574.163C1281.41 575.865 1274.61 571.756 1272.88 564.988C1271.15 558.219 1275.15 551.35 1281.82 549.648C1288.49 547.946 1295.29 552.058 1297.02 558.827ZM1331.28 518.839C1345.59 515.186 1360.18 523.12 1365.39 536.808L1383.99 531.443C1380.51 521.255 1373.96 512.862 1365.69 507.077C1363.45 509.746 1360.4 511.757 1356.79 512.678C1347.52 515.044 1338.06 509.332 1335.66 499.923C1335.54 499.423 1335.43 498.929 1335.35 498.435C1332.39 498.613 1329.4 499.07 1326.43 499.83C1318.97 501.733 1312.38 505.312 1306.93 510.067L1320.43 524.276C1323.53 521.774 1327.18 519.884 1331.28 518.839ZM1355.57 507.894C1362.24 506.193 1366.24 499.329 1364.51 492.56C1362.78 485.789 1355.98 481.68 1349.31 483.381C1342.65 485.083 1338.65 491.949 1340.37 498.72C1342.1 505.489 1348.9 509.596 1355.57 507.894ZM1373.61 575.947C1366.94 577.648 1362.94 584.515 1364.67 591.283C1366.4 598.054 1373.2 602.164 1379.86 600.462C1386.53 598.761 1390.54 591.893 1388.81 585.122C1387.08 578.354 1380.28 574.245 1373.61 575.947ZM1310.6 554.302C1308.29 545.246 1310.42 536.114 1315.6 529.263L1301.52 515.63C1294.74 523.838 1290.7 534.247 1290.36 545.25C1295.77 547.097 1300.19 551.605 1301.73 557.625C1303.21 563.423 1301.67 569.272 1298.1 573.461C1303.76 582.355 1312.09 589.086 1321.65 592.788L1326.63 573.714C1318.96 570.136 1312.88 563.22 1310.6 554.302ZM1372.39 571.163C1375.19 570.447 1378.02 570.473 1380.66 571.116C1385.91 561.525 1387.99 550.112 1385.86 538.604L1367.02 543.014C1369.22 557.662 1360.18 571.832 1345.74 575.518C1341.74 576.539 1337.72 576.652 1333.88 575.989L1328.79 594.931C1335.78 596.452 1343.21 596.414 1350.6 594.529C1353.79 593.715 1356.82 592.588 1359.68 591.199C1358.07 582.219 1363.54 573.42 1372.39 571.163Z" fill="black"/>
<path d="M953.019 947.827C954.747 954.595 950.746 961.462 944.08 963.163C937.41 964.865 930.607 960.756 928.88 953.988C927.152 947.219 931.153 940.35 937.823 938.648C944.489 936.946 951.292 941.058 953.019 947.827ZM987.278 907.839C1001.59 904.186 1016.18 912.12 1021.39 925.808L1039.99 920.443C1036.51 910.255 1029.96 901.862 1021.69 896.077C1019.45 898.746 1016.4 900.757 1012.79 901.678C1003.52 904.044 994.064 898.332 991.663 888.923C991.535 888.423 991.431 887.929 991.347 887.435C988.386 887.613 985.403 888.07 982.426 888.83C974.969 890.733 968.377 894.312 962.934 899.067L976.433 913.276C979.527 910.774 983.184 908.884 987.278 907.839ZM1011.57 896.894C1018.24 895.193 1022.24 888.329 1020.51 881.56C1018.78 874.789 1011.98 870.68 1005.31 872.381C998.647 874.083 994.645 880.949 996.373 887.72C998.101 894.489 1004.9 898.596 1011.57 896.894ZM1029.61 964.947C1022.94 966.648 1018.94 973.515 1020.67 980.283C1022.4 987.054 1029.2 991.164 1035.86 989.463C1042.53 987.761 1046.54 980.893 1044.81 974.122C1043.08 967.354 1036.28 963.245 1029.61 964.947ZM966.605 943.302C964.294 934.246 966.416 925.114 971.604 918.263L957.523 904.63C950.736 912.838 946.701 923.247 946.355 934.25C951.771 936.097 956.194 940.605 957.73 946.625C959.21 952.423 957.666 958.272 954.096 962.461C959.761 971.356 968.086 978.086 977.646 981.788L982.63 962.714C974.965 959.136 968.881 952.22 966.605 943.302ZM1028.39 960.163C1031.19 959.447 1034.02 959.474 1036.66 960.116C1041.91 950.525 1043.99 939.112 1041.86 927.604L1023.02 932.014C1025.22 946.662 1016.18 960.832 1001.74 964.518C997.74 965.539 993.717 965.652 989.881 964.989L984.787 983.931C991.784 985.452 999.212 985.414 1006.6 983.529C1009.79 982.715 1012.82 981.588 1015.68 980.199C1014.07 971.219 1019.54 962.42 1028.39 960.163Z" fill="black"/>
<path d="M393.019 598.827C394.747 605.595 390.746 612.462 384.08 614.163C377.41 615.865 370.607 611.756 368.88 604.988C367.152 598.219 371.153 591.35 377.823 589.648C384.489 587.946 391.292 592.058 393.019 598.827ZM427.278 558.839C441.591 555.186 456.179 563.12 461.387 576.808L479.992 571.443C476.507 561.255 469.956 552.862 461.687 547.077C459.45 549.746 456.401 551.757 452.792 552.678C443.521 555.044 434.064 549.332 431.663 539.923C431.535 539.423 431.431 538.929 431.347 538.435C428.386 538.613 425.403 539.07 422.426 539.83C414.969 541.733 408.377 545.312 402.934 550.067L416.433 564.276C419.527 561.774 423.184 559.884 427.278 558.839ZM451.571 547.894C458.236 546.193 462.238 539.329 460.511 532.56C458.783 525.789 451.98 521.68 445.314 523.381C438.647 525.083 434.645 531.949 436.373 538.72C438.101 545.489 444.903 549.596 451.571 547.894ZM469.607 615.947C462.942 617.648 458.941 624.515 460.668 631.283C462.396 638.054 469.199 642.164 475.864 640.463C482.532 638.761 486.536 631.893 484.807 625.122C483.08 618.354 476.275 614.245 469.607 615.947ZM406.605 594.302C404.294 585.246 406.416 576.114 411.604 569.263L397.523 555.63C390.736 563.838 386.701 574.247 386.355 585.25C391.771 587.097 396.194 591.605 397.73 597.625C399.21 603.423 397.666 609.272 394.096 613.461C399.761 622.356 408.086 629.086 417.646 632.788L422.63 613.714C414.965 610.136 408.881 603.22 406.605 594.302ZM468.386 611.163C471.193 610.447 474.021 610.474 476.66 611.116C481.911 601.525 483.988 590.112 481.865 578.604L463.015 583.014C465.22 597.662 456.183 611.832 441.743 615.518C437.74 616.539 433.717 616.652 429.881 615.989L424.787 634.931C431.784 636.452 439.212 636.414 446.596 634.529C449.788 633.715 452.822 632.588 455.679 631.199C454.069 622.219 459.542 613.42 468.386 611.163Z" fill="black"/>
<path d="M473.019 112.827C474.747 119.595 470.746 126.462 464.08 128.163C457.41 129.865 450.607 125.756 448.88 118.988C447.152 112.219 451.153 105.35 457.823 103.648C464.489 101.946 471.292 106.058 473.019 112.827ZM507.278 72.8394C521.591 69.1862 536.179 77.1202 541.387 90.8077L559.992 85.4427C556.507 75.2552 549.956 66.8619 541.687 61.077C539.45 63.746 536.401 65.7567 532.792 66.6778C523.521 69.0438 514.064 63.3317 511.663 53.9225C511.535 53.4228 511.431 52.9293 511.347 52.4351C508.386 52.6129 505.403 53.0699 502.426 53.8297C494.969 55.7329 488.377 59.3118 482.934 64.0672L496.433 78.2758C499.527 75.7743 503.184 73.8842 507.278 72.8394ZM531.571 61.8944C538.236 60.1932 542.238 53.3286 540.511 46.5599C538.783 39.7889 531.98 35.6796 525.314 37.3808C518.647 39.0826 514.645 45.9494 516.373 52.7203C518.101 59.4891 524.903 63.5961 531.571 61.8944ZM549.607 129.947C542.942 131.648 538.941 138.515 540.668 145.283C542.396 152.054 549.199 156.164 555.864 154.462C562.532 152.761 566.536 145.893 564.807 139.122C563.08 132.354 556.275 128.245 549.607 129.947ZM486.605 108.302C484.294 99.2462 486.416 90.1137 491.604 83.2628L477.523 69.6299C470.736 77.838 466.701 88.2473 466.355 99.2498C471.771 101.097 476.194 105.605 477.73 111.625C479.21 117.423 477.666 123.272 474.096 127.461C479.761 136.355 488.086 143.086 497.646 146.788L502.63 127.714C494.965 124.136 488.881 117.22 486.605 108.302ZM548.386 125.163C551.193 124.447 554.021 124.473 556.66 125.116C561.911 115.525 563.988 104.112 561.865 92.6039L543.015 97.0142C545.22 111.662 536.183 125.832 521.743 129.518C517.74 130.539 513.717 130.652 509.881 129.989L504.787 148.931C511.784 150.452 519.212 150.414 526.596 148.529C529.788 147.715 532.822 146.588 535.679 145.199C534.069 136.219 539.542 127.42 548.386 125.163Z" fill="black"/>
<path d="M936.019 80.8267C937.747 87.5954 933.746 94.4619 927.08 96.1631C920.41 97.8655 913.607 93.7564 911.88 86.9876C910.152 80.2186 914.153 73.3499 920.823 71.6475C927.489 69.9463 934.292 74.0576 936.019 80.8267ZM970.278 40.8394C984.591 37.1862 999.179 45.1202 1004.39 58.8077L1022.99 53.4428C1019.51 43.2552 1012.96 34.8619 1004.69 29.0771C1002.45 31.746 999.401 33.7568 995.792 34.6779C986.521 37.0438 977.064 31.3318 974.663 21.9225C974.535 21.4229 974.431 20.9293 974.347 20.4351C971.386 20.613 968.403 21.07 965.426 21.8298C957.969 23.733 951.377 27.3118 945.934 32.0672L959.433 46.2758C962.527 43.7743 966.184 41.8842 970.278 40.8394ZM994.571 29.8944C1001.24 28.1932 1005.24 21.3286 1003.51 14.5599C1001.78 7.7889 994.98 3.67963 988.314 5.38083C981.647 7.0826 977.645 13.9494 979.373 20.7204C981.101 27.4891 987.903 31.5962 994.571 29.8944ZM1012.61 97.9467C1005.94 99.6479 1001.94 106.515 1003.67 113.283C1005.4 120.054 1012.2 124.164 1018.86 122.463C1025.53 120.761 1029.54 113.893 1027.81 107.122C1026.08 100.354 1019.28 96.2448 1012.61 97.9467ZM949.605 76.302C947.294 67.2462 949.416 58.1138 954.604 51.2629L940.523 37.6299C933.736 45.838 929.701 56.2473 929.355 67.2498C934.771 69.0972 939.194 73.6052 940.73 79.6247C942.21 85.4229 940.666 91.2716 937.096 95.4606C942.761 104.356 951.086 111.086 960.646 114.788L965.63 95.7138C957.965 92.1361 951.881 85.2205 949.605 76.302ZM1011.39 93.1633C1014.19 92.447 1017.02 92.4735 1019.66 93.1161C1024.91 83.5254 1026.99 72.1123 1024.86 60.6039L1006.02 65.0142C1008.22 79.6622 999.183 93.8323 984.743 97.5177C980.74 98.5393 976.717 98.6524 972.881 97.989L967.787 116.931C974.784 118.452 982.212 118.414 989.596 116.529C992.788 115.715 995.822 114.588 998.679 113.199C997.069 104.219 1002.54 95.4205 1011.39 93.1633Z" fill="black"/>
<path d="M1363.62 352.18C1363.95 351.581 1364.16 350.918 1364.22 350.231C1364.29 349.543 1364.21 348.845 1364 348.177C1363.67 347.172 1363.05 346.272 1362.22 345.589C1361.38 344.907 1360.37 344.472 1359.3 344.339C1358.23 344.206 1357.16 344.381 1356.22 344.842C1355.27 345.303 1354.5 346.029 1354 346.93C1353.33 348.147 1353.19 349.59 1353.62 350.943C1354.05 352.296 1355 353.448 1356.28 354.147C1357.55 354.841 1359.04 355.025 1360.42 354.657C1361.79 354.289 1362.94 353.4 1363.61 352.185L1363.62 352.18ZM1357.88 350.25C1358.46 349.106 1359.57 348.506 1360.37 348.908C1361.17 349.314 1361.35 350.564 1360.77 351.708C1360.19 352.856 1359.08 353.463 1358.28 353.057C1357.48 352.658 1357.3 351.398 1357.88 350.25ZM1346.55 358.207C1346.57 358.255 1346.6 358.37 1346.67 358.396C1348.5 358.99 1357.93 360.719 1360.82 359.887C1361.62 359.658 1362.35 359.523 1363.26 358.957C1370.61 354.379 1380.94 339.939 1381.42 339.257C1381.42 339.257 1381.48 339.196 1381.45 339.116C1381.43 339.054 1381.35 339.009 1381.35 339.009L1377.61 337.035C1378.98 335.717 1388.78 326.07 1394.67 315.363C1399.66 306.286 1407.7 293.451 1405.21 269.809L1405.12 269.11C1403.88 257.954 1400.04 248.75 1393.72 241.766C1391.73 239.571 1386.79 235.479 1380.91 234.104C1378.34 233.496 1375.52 233.351 1372.77 233.683C1366.55 234.433 1360.83 238.079 1357.49 243.419C1352.76 250.956 1353.46 258.817 1359.35 264.457C1363.41 268.341 1371.2 270.43 1377.63 266.627C1382.85 263.53 1384.66 258.286 1384.13 254.442C1383.66 251.106 1381.69 248.364 1378.76 246.915C1373.54 244.356 1368.62 247.242 1367.07 250.309C1366.62 251.202 1366.33 252.177 1366.17 253.363C1366.09 253.797 1366.07 254.242 1366.12 254.685L1366.14 254.84L1366.15 254.936L1366.15 254.905C1366.23 255.502 1366.51 256.063 1366.94 256.51C1367.37 256.956 1367.93 257.265 1368.53 257.393C1369.25 257.539 1369.99 257.419 1370.61 257.058C1371.22 256.697 1371.67 256.12 1371.85 255.44L1371.9 255.25L1371.95 254.977L1371.99 254.574C1372.17 253.773 1372.42 253.236 1372.47 253.121C1372.68 252.774 1374.12 251.286 1376.15 252.307L1376.17 252.32C1376.92 252.696 1377.3 253.244 1377.51 253.542C1378.13 254.55 1378.26 256.499 1377.05 258.444C1375.46 260.989 1373.05 262.195 1369.71 262.11C1366.6 262.026 1363.66 260.159 1362.24 257.34C1360.83 254.555 1361.37 251.115 1363.79 247.403C1364.98 245.577 1366.62 244.082 1368.58 243.054C1370.53 242.026 1372.73 241.497 1374.99 241.514C1379.55 241.507 1383.91 243.58 1386.38 246.925C1392.29 254.939 1388.38 262.481 1385.53 266.256C1381.32 271.846 1371.85 275.856 1363.74 274.881C1362.45 274.735 1361.48 274.499 1360.59 274.28L1359.27 273.952L1352.22 279.109C1352.07 279.223 1352.02 279.263 1352.04 279.342C1352.05 279.445 1352.23 279.48 1352.23 279.48C1352.41 279.515 1352.61 279.495 1354.73 280.356C1356.6 281.138 1361.68 283.36 1362.93 286.975C1363.43 288.383 1363.57 290.215 1363.29 291.47C1362.15 296.611 1358.66 301.547 1350 303.517C1345.52 304.535 1343.44 305.088 1342.47 305.405C1342.47 305.405 1342.25 305.472 1342.14 305.52C1342.03 305.567 1341.94 305.594 1341.81 305.677C1341.58 305.828 1333.23 312.245 1333.23 312.245C1333.23 312.245 1333.12 312.322 1333.18 312.44C1333.24 312.565 1333.37 312.539 1333.37 312.539C1333.47 312.518 1343.34 310.824 1348.78 314.752C1353.12 317.876 1350.88 321.246 1347.8 325.914C1346.78 327.435 1345.63 329.166 1344.63 331.053C1341.91 336.361 1340.05 342.621 1339.89 346.973C1339.77 349.788 1339.73 351.597 1340.14 352.953C1340.26 353.428 1340.63 353.832 1341.05 354.259L1341.31 354.551C1341.64 354.902 1342.38 355.548 1342.8 355.876C1342.98 356.024 1343.17 356.168 1343.38 356.075C1343.57 355.983 1343.53 355.534 1343.53 355.534C1343.33 353.485 1343.43 348.671 1345.19 344.997C1347.36 340.442 1356.84 333.761 1357.83 333.075C1359.73 333.24 1361.63 333.401 1363.52 333.551C1355.72 337.816 1350.5 341.981 1348.03 345.938C1345.27 350.336 1346.09 355.272 1346.4 357.385C1346.44 357.658 1346.5 357.941 1346.56 358.209L1346.55 358.207ZM1362.38 342.935C1364.22 343.945 1365.58 345.571 1366.19 347.523C1366.5 348.484 1366.61 349.486 1366.51 350.473C1366.42 351.461 1366.13 352.413 1365.65 353.276C1364.69 355.019 1363.04 356.294 1361.07 356.821C1359.09 357.349 1356.96 357.087 1355.13 356.092C1353.29 355.077 1351.93 353.451 1351.32 351.507C1350.69 349.55 1350.89 347.51 1351.86 345.742C1352.83 344.003 1354.48 342.732 1356.45 342.206C1358.42 341.681 1360.55 341.943 1362.38 342.935V342.935Z" fill="black"/>
<path d="M620.575 746.744C619.996 746.375 619.35 746.124 618.673 746.007C617.997 745.891 617.304 745.91 616.635 746.064C615.628 746.299 614.714 746.825 614.005 747.577C613.296 748.329 612.824 749.273 612.649 750.291C612.473 751.309 612.602 752.357 613.018 753.302C613.435 754.248 614.121 755.049 614.991 755.607C616.166 756.347 617.586 756.59 618.94 756.284C620.294 755.978 621.472 755.147 622.215 753.974C622.954 752.798 623.197 751.377 622.89 750.023C622.583 748.668 621.753 747.49 620.58 746.747L620.575 746.744ZM618.431 752.123C617.325 751.478 616.778 750.357 617.207 749.621C617.642 748.875 618.884 748.804 619.991 749.449C621.101 750.096 621.655 751.216 621.221 751.961C620.794 752.693 619.542 752.771 618.431 752.123ZM625.827 763.665C625.875 763.656 625.99 763.637 626.018 763.568C626.681 761.853 628.778 752.899 628.075 750.039C627.881 749.258 627.778 748.542 627.256 747.619C623.035 740.171 609.193 729.086 608.539 728.57C608.539 728.57 608.481 728.511 608.401 728.532C608.339 728.545 608.291 728.615 608.291 728.615L606.186 732.069C604.94 730.644 595.813 720.445 585.475 713.927C576.712 708.407 564.361 699.65 540.898 700.201L540.204 700.225C529.13 700.55 519.876 703.53 512.715 709.078C510.463 710.828 506.217 715.263 504.617 720.824C503.91 723.255 503.65 725.959 503.864 728.638C504.349 734.698 507.716 740.491 512.855 744.136C520.107 749.284 527.904 749.223 533.719 743.987C537.725 740.374 540.11 733.028 536.617 726.537C533.772 721.257 528.665 719.101 524.845 719.318C521.529 719.51 518.739 721.186 517.186 723.901C514.442 728.734 517.091 733.698 520.058 735.439C520.921 735.943 521.873 736.296 523.038 736.546C523.464 736.654 523.903 736.704 524.343 736.694L524.497 736.692L524.592 736.686L524.561 736.687C525.154 736.649 525.721 736.425 526.18 736.047C526.638 735.669 526.967 735.156 527.118 734.581C527.292 733.899 527.204 733.177 526.872 732.556C526.541 731.935 525.989 731.461 525.326 731.226L525.14 731.167L524.871 731.102L524.475 731.025C523.691 730.794 523.171 730.509 523.059 730.45C522.725 730.224 521.313 728.715 522.406 726.841L522.42 726.818C522.822 726.128 523.379 725.803 523.682 725.63C524.705 725.105 526.636 725.135 528.507 726.452C530.957 728.187 532.049 730.6 531.827 733.817C531.616 736.806 529.65 739.495 526.806 740.642C523.996 741.785 520.62 740.999 517.052 738.367C515.296 737.083 513.887 735.382 512.951 733.417C512.016 731.453 511.584 729.286 511.694 727.113C511.875 722.716 514.104 718.673 517.51 716.56C525.672 711.492 532.963 715.848 536.576 718.886C541.926 723.389 545.498 732.831 544.201 740.572C544.003 741.804 543.73 742.723 543.477 743.556L543.098 744.805L547.904 752.006C548.01 752.16 548.047 752.213 548.126 752.203C548.228 752.196 548.27 752.03 548.27 752.03C548.312 751.852 548.3 751.662 549.239 749.685C550.088 747.944 552.494 743.22 556.117 742.3C557.529 741.928 559.345 741.933 560.573 742.306C565.606 743.801 570.34 747.554 571.929 756.059C572.751 760.459 573.212 762.505 573.484 763.466C573.484 763.466 573.541 763.684 573.584 763.788C573.627 763.905 573.65 763.992 573.727 764.122C573.866 764.357 579.862 772.908 579.862 772.908C579.862 772.908 579.934 773.017 580.053 772.97C580.179 772.921 580.159 772.799 580.159 772.799C580.141 772.703 578.875 763.056 582.98 758.116C586.246 754.175 589.484 756.596 593.969 759.934C595.43 761.032 597.093 762.277 598.916 763.395C604.049 766.431 610.158 768.718 614.451 769.212C617.228 769.545 619.014 769.728 620.37 769.441C620.845 769.362 621.26 769.028 621.698 768.665L621.998 768.435C622.358 768.143 623.027 767.479 623.369 767.103C623.522 766.935 623.672 766.771 623.589 766.557C623.507 766.362 623.06 766.371 623.06 766.371C621.028 766.4 616.276 765.926 612.718 763.949C608.306 761.493 602.096 751.838 601.459 750.829C601.699 749.009 601.937 747.193 602.163 745.377C606.057 753.228 609.956 758.59 613.764 761.282C617.996 764.288 622.908 763.881 625.008 763.745C625.279 763.732 625.561 763.7 625.829 763.66L625.827 763.665ZM611.388 747.214C612.463 745.519 614.125 744.338 616.079 743.896C617.041 743.678 618.036 743.651 619.008 743.818C619.979 743.985 620.908 744.342 621.741 744.87C623.424 745.935 624.615 747.624 625.056 749.566C625.496 751.508 625.149 753.546 624.091 755.233C623.012 756.926 621.349 758.107 619.402 758.547C617.443 758.997 615.435 758.648 613.728 757.573C612.05 756.505 610.862 754.817 610.424 752.876C609.986 750.936 610.332 748.9 611.388 747.214V747.214Z" fill="black"/>
<path d="M404.575 85.7443C403.996 85.3747 403.35 85.1242 402.673 85.0075C401.997 84.8907 401.304 84.91 400.635 85.0643C399.628 85.299 398.714 85.8251 398.005 86.5769C397.296 87.3286 396.824 88.2727 396.649 89.291C396.473 90.3093 396.602 91.3567 397.018 92.3022C397.435 93.2477 398.121 94.0494 398.991 94.607C400.166 95.3466 401.586 95.5901 402.94 95.2841C404.294 94.978 405.472 94.1474 406.215 92.9744C406.954 91.7982 407.197 90.3772 406.89 89.0226C406.583 87.668 405.753 86.4901 404.58 85.747L404.575 85.7443ZM402.431 91.1233C401.325 90.4783 400.778 89.3569 401.207 88.6207C401.642 87.8755 402.884 87.8035 403.991 88.4485C405.101 89.0962 405.655 90.2157 405.221 90.961C404.794 91.6925 403.542 91.771 402.431 91.1233ZM409.827 102.665C409.875 102.656 409.99 102.637 410.018 102.568C410.681 100.853 412.778 91.8994 412.075 89.039C411.881 88.2581 411.778 87.5423 411.256 86.6194C407.035 79.1714 393.193 68.086 392.539 67.5696C392.539 67.5696 392.481 67.5114 392.401 67.5324C392.339 67.5449 392.291 67.6154 392.291 67.6154L390.186 71.0686C388.94 69.6438 379.813 59.4448 369.475 52.9273C360.712 47.4074 348.361 38.6497 324.898 39.2011L324.204 39.2253C313.13 39.5503 303.876 42.5301 296.715 48.0777C294.463 49.8281 290.217 54.2632 288.617 59.8241C287.91 62.2548 287.65 64.9586 287.864 67.6382C288.349 73.6983 291.716 79.4905 296.855 83.1363C304.107 88.2841 311.904 88.2228 317.719 82.9872C321.725 79.3738 324.11 72.0276 320.617 65.537C317.772 60.2574 312.665 58.1007 308.845 58.3178C305.529 58.5104 302.739 60.1859 301.186 62.9014C298.442 67.7342 301.091 72.6977 304.058 74.4394C304.921 74.9431 305.873 75.296 307.038 75.5463C307.464 75.6542 307.903 75.7039 308.343 75.6941L308.497 75.6922L308.592 75.6865L308.561 75.6868C309.154 75.6487 309.721 75.4248 310.18 75.0469C310.638 74.669 310.967 74.1563 311.118 73.5813C311.292 72.8992 311.204 72.1768 310.872 71.5561C310.541 70.9353 309.989 70.461 309.326 70.2264L309.14 70.167L308.871 70.1023L308.475 70.0247C307.691 69.7941 307.171 69.5093 307.059 69.4499C306.725 69.2244 305.313 67.7155 306.406 65.8409L306.42 65.818C306.822 65.1276 307.379 64.8029 307.682 64.6302C308.705 64.1054 310.636 64.1345 312.507 65.4525C314.957 67.187 316.049 69.6005 315.827 72.8166C315.616 75.8056 313.65 78.4946 310.806 79.6424C307.996 80.7853 304.62 79.9992 301.052 77.3675C299.296 76.0829 297.887 74.3819 296.951 72.4174C296.016 70.4528 295.584 68.2865 295.694 66.1133C295.875 61.7158 298.104 57.6729 301.51 55.5603C309.672 50.492 316.963 54.8477 320.576 57.8855C325.926 62.3892 329.498 71.8306 328.201 79.5716C328.003 80.8041 327.73 81.7234 327.477 82.5562L327.098 83.8055L331.904 91.0065C332.01 91.1604 332.047 91.2126 332.126 91.2034C332.228 91.1957 332.27 91.03 332.27 91.03C332.312 90.8525 332.3 90.662 333.239 88.685C334.088 86.9441 336.494 82.22 340.117 81.3001C341.529 80.9282 343.345 80.9334 344.573 81.3064C349.606 82.8014 354.34 86.554 355.929 95.0592C356.751 99.4594 357.212 101.505 357.484 102.466C357.484 102.466 357.541 102.684 357.584 102.788C357.627 102.905 357.65 102.992 357.727 103.122C357.866 103.357 363.862 111.908 363.862 111.908C363.862 111.908 363.934 112.017 364.053 111.97C364.179 111.921 364.159 111.799 364.159 111.799C364.141 111.703 362.875 102.056 366.98 97.1163C370.246 93.1755 373.484 95.5963 377.969 98.9345C379.43 100.032 381.093 101.277 382.916 102.395C388.049 105.431 394.158 107.718 398.451 108.212C401.228 108.545 403.014 108.728 404.37 108.441C404.845 108.362 405.26 108.028 405.698 107.665L405.998 107.435C406.358 107.143 407.027 106.479 407.369 106.103C407.522 105.935 407.672 105.771 407.589 105.557C407.507 105.362 407.06 105.371 407.06 105.371C405.028 105.4 400.276 104.926 396.718 102.949C392.306 100.493 386.096 90.8376 385.459 89.829C385.699 88.0088 385.937 86.193 386.163 84.3766C390.057 92.2281 393.956 97.5898 397.764 100.282C401.996 103.288 406.908 102.881 409.008 102.745C409.279 102.732 409.561 102.7 409.829 102.66L409.827 102.665ZM395.388 86.2144C396.463 84.5188 398.125 83.3378 400.079 82.8964C401.041 82.6776 402.036 82.6509 403.008 82.8179C403.979 82.985 404.908 83.3424 405.741 83.8697C407.424 84.9352 408.615 86.6239 409.056 88.5661C409.496 90.5083 409.149 92.546 408.091 94.2333C407.012 95.9262 405.349 97.1073 403.402 97.5467C401.443 97.9972 399.435 97.6476 397.728 96.5727C396.05 95.5048 394.862 93.8165 394.424 91.8761C393.986 89.9357 394.332 87.9005 395.388 86.2144V86.2144Z" fill="black"/>
<path d="M392.575 453.744C391.996 453.375 391.35 453.124 390.673 453.007C389.997 452.891 389.304 452.91 388.635 453.064C387.628 453.299 386.714 453.825 386.005 454.577C385.296 455.329 384.824 456.273 384.649 457.291C384.473 458.309 384.602 459.357 385.018 460.302C385.435 461.248 386.121 462.049 386.991 462.607C388.166 463.347 389.586 463.59 390.94 463.284C392.294 462.978 393.472 462.147 394.215 460.974C394.954 459.798 395.197 458.377 394.89 457.023C394.583 455.668 393.753 454.49 392.58 453.747L392.575 453.744ZM390.431 459.123C389.325 458.478 388.778 457.357 389.207 456.621C389.642 455.875 390.884 455.804 391.991 456.449C393.101 457.096 393.655 458.216 393.221 458.961C392.794 459.693 391.542 459.771 390.431 459.123ZM397.827 470.665C397.875 470.656 397.99 470.637 398.018 470.568C398.681 468.853 400.778 459.899 400.075 457.039C399.881 456.258 399.778 455.542 399.256 454.619C395.035 447.171 381.193 436.086 380.539 435.57C380.539 435.57 380.481 435.511 380.401 435.532C380.339 435.545 380.291 435.615 380.291 435.615L378.186 439.069C376.94 437.644 367.813 427.445 357.475 420.927C348.712 415.407 336.361 406.65 312.898 407.201L312.204 407.225C301.13 407.55 291.876 410.53 284.715 416.078C282.463 417.828 278.217 422.263 276.617 427.824C275.91 430.255 275.65 432.959 275.864 435.638C276.349 441.698 279.716 447.491 284.855 451.136C292.107 456.284 299.904 456.223 305.719 450.987C309.725 447.374 312.11 440.028 308.617 433.537C305.772 428.257 300.665 426.101 296.845 426.318C293.529 426.51 290.739 428.186 289.186 430.901C286.442 435.734 289.091 440.698 292.058 442.439C292.921 442.943 293.873 443.296 295.038 443.546C295.464 443.654 295.903 443.704 296.343 443.694L296.497 443.692L296.592 443.686L296.561 443.687C297.154 443.649 297.721 443.425 298.18 443.047C298.638 442.669 298.967 442.156 299.118 441.581C299.292 440.899 299.204 440.177 298.872 439.556C298.541 438.935 297.989 438.461 297.326 438.226L297.14 438.167L296.871 438.102L296.475 438.025C295.691 437.794 295.171 437.509 295.059 437.45C294.725 437.224 293.313 435.715 294.406 433.841L294.42 433.818C294.822 433.128 295.379 432.803 295.682 432.63C296.705 432.105 298.636 432.135 300.507 433.452C302.957 435.187 304.049 437.6 303.827 440.817C303.616 443.806 301.65 446.495 298.806 447.642C295.996 448.785 292.62 447.999 289.052 445.367C287.296 444.083 285.887 442.382 284.951 440.417C284.016 438.453 283.584 436.286 283.694 434.113C283.875 429.716 286.104 425.673 289.51 423.56C297.672 418.492 304.963 422.848 308.576 425.886C313.926 430.389 317.498 439.831 316.201 447.572C316.003 448.804 315.73 449.723 315.477 450.556L315.098 451.805L319.904 459.006C320.01 459.16 320.047 459.213 320.126 459.203C320.228 459.196 320.27 459.03 320.27 459.03C320.312 458.852 320.3 458.662 321.239 456.685C322.088 454.944 324.494 450.22 328.117 449.3C329.529 448.928 331.345 448.933 332.573 449.306C337.606 450.801 342.34 454.554 343.929 463.059C344.751 467.459 345.212 469.505 345.484 470.466C345.484 470.466 345.541 470.684 345.584 470.788C345.627 470.905 345.65 470.992 345.727 471.122C345.866 471.357 351.862 479.908 351.862 479.908C351.862 479.908 351.934 480.017 352.053 479.97C352.179 479.921 352.159 479.799 352.159 479.799C352.141 479.703 350.875 470.056 354.98 465.116C358.246 461.175 361.484 463.596 365.969 466.934C367.43 468.032 369.093 469.277 370.916 470.395C376.049 473.431 382.158 475.718 386.451 476.212C389.228 476.545 391.014 476.728 392.37 476.441C392.845 476.362 393.26 476.028 393.698 475.665L393.998 475.435C394.358 475.143 395.027 474.479 395.369 474.103C395.522 473.935 395.672 473.771 395.589 473.557C395.507 473.362 395.06 473.371 395.06 473.371C393.028 473.4 388.276 472.926 384.718 470.949C380.306 468.493 374.096 458.838 373.459 457.829C373.699 456.009 373.937 454.193 374.163 452.377C378.057 460.228 381.956 465.59 385.764 468.282C389.996 471.288 394.908 470.881 397.008 470.745C397.279 470.732 397.561 470.7 397.829 470.66L397.827 470.665ZM383.388 454.214C384.463 452.519 386.125 451.338 388.079 450.896C389.041 450.678 390.036 450.651 391.008 450.818C391.979 450.985 392.908 451.342 393.741 451.87C395.424 452.935 396.615 454.624 397.056 456.566C397.496 458.508 397.149 460.546 396.091 462.233C395.012 463.926 393.349 465.107 391.402 465.547C389.443 465.997 387.435 465.648 385.728 464.573C384.05 463.505 382.862 461.817 382.424 459.876C381.986 457.936 382.332 455.9 383.388 454.214V454.214Z" fill="black"/>
<path d="M1328.35 695.047C1327.77 694.677 1327.13 694.427 1326.45 694.31C1325.77 694.193 1325.08 694.213 1324.41 694.367C1323.41 694.602 1322.49 695.128 1321.78 695.88C1321.07 696.631 1320.6 697.575 1320.43 698.594C1320.25 699.612 1320.38 700.659 1320.8 701.605C1321.21 702.55 1321.9 703.352 1322.77 703.91C1323.94 704.649 1325.36 704.893 1326.72 704.587C1328.07 704.281 1329.25 703.45 1329.99 702.277C1330.73 701.101 1330.97 699.68 1330.67 698.325C1330.36 696.971 1329.53 695.793 1328.36 695.05L1328.35 695.047ZM1326.21 700.426C1325.1 699.781 1324.56 698.66 1324.98 697.923C1325.42 697.178 1326.66 697.106 1327.77 697.751C1328.88 698.399 1329.43 699.518 1329 700.264C1328.57 700.995 1327.32 701.074 1326.21 700.426ZM1333.6 711.968C1333.65 711.959 1333.77 711.94 1333.79 711.871C1334.46 710.156 1336.55 701.202 1335.85 698.342C1335.66 697.561 1335.55 696.845 1335.03 695.922C1330.81 688.474 1316.97 677.389 1316.32 676.872C1316.32 676.872 1316.26 676.814 1316.18 676.835C1316.12 676.848 1316.07 676.918 1316.07 676.918L1313.96 680.371C1312.72 678.947 1303.59 668.748 1293.25 662.23C1284.49 656.71 1272.14 647.952 1248.68 648.504L1247.98 648.528C1236.91 648.853 1227.65 651.833 1220.49 657.38C1218.24 659.131 1213.99 663.566 1212.39 669.127C1211.69 671.558 1211.43 674.261 1211.64 676.941C1212.13 683.001 1215.49 688.793 1220.63 692.439C1227.88 697.587 1235.68 697.526 1241.5 692.29C1245.5 688.677 1247.89 681.33 1244.39 674.84C1241.55 669.56 1236.44 667.403 1232.62 667.621C1229.31 667.813 1226.52 669.489 1224.96 672.204C1222.22 677.037 1224.87 682 1227.83 683.742C1228.7 684.246 1229.65 684.599 1230.82 684.849C1231.24 684.957 1231.68 685.007 1232.12 684.997L1232.27 684.995L1232.37 684.989L1232.34 684.99C1232.93 684.951 1233.5 684.728 1233.96 684.35C1234.42 683.972 1234.74 683.459 1234.9 682.884C1235.07 682.202 1234.98 681.48 1234.65 680.859C1234.32 680.238 1233.77 679.764 1233.1 679.529L1232.92 679.47L1232.65 679.405L1232.25 679.327C1231.47 679.097 1230.95 678.812 1230.84 678.753C1230.5 678.527 1229.09 677.018 1230.18 675.144L1230.2 675.121C1230.6 674.43 1231.16 674.106 1231.46 673.933C1232.48 673.408 1234.41 673.437 1236.28 674.755C1238.73 676.49 1239.83 678.903 1239.6 682.119C1239.39 685.108 1237.43 687.797 1234.58 688.945C1231.77 690.088 1228.4 689.302 1224.83 686.67C1223.07 685.386 1221.66 683.685 1220.73 681.72C1219.79 679.756 1219.36 677.589 1219.47 675.416C1219.65 671.019 1221.88 666.976 1225.29 664.863C1233.45 659.795 1240.74 664.15 1244.35 667.188C1249.7 671.692 1253.28 681.133 1251.98 688.874C1251.78 690.107 1251.51 691.026 1251.25 691.859L1250.88 693.108L1255.68 700.309C1255.79 700.463 1255.82 700.515 1255.9 700.506C1256.01 700.498 1256.05 700.333 1256.05 700.333C1256.09 700.155 1256.08 699.965 1257.02 697.988C1257.87 696.247 1260.27 691.523 1263.89 690.603C1265.31 690.231 1267.12 690.236 1268.35 690.609C1273.38 692.104 1278.12 695.857 1279.71 704.362C1280.53 708.762 1280.99 710.808 1281.26 711.769C1281.26 711.769 1281.32 711.986 1281.36 712.091C1281.4 712.208 1281.43 712.294 1281.5 712.425C1281.64 712.659 1287.64 721.211 1287.64 721.211C1287.64 721.211 1287.71 721.319 1287.83 721.273C1287.96 721.224 1287.94 721.101 1287.94 721.101C1287.92 721.005 1286.65 711.359 1290.76 706.419C1294.02 702.478 1297.26 704.899 1301.75 708.237C1303.21 709.334 1304.87 710.58 1306.69 711.698C1311.83 714.733 1317.93 717.021 1322.23 717.515C1325.01 717.848 1326.79 718.031 1328.15 717.743C1328.62 717.665 1329.04 717.331 1329.48 716.968L1329.77 716.738C1330.14 716.446 1330.8 715.782 1331.15 715.405C1331.3 715.237 1331.45 715.074 1331.37 714.86C1331.28 714.665 1330.84 714.674 1330.84 714.674C1328.81 714.702 1324.05 714.229 1320.49 712.252C1316.08 709.796 1309.87 700.14 1309.24 699.132C1309.48 697.311 1309.71 695.496 1309.94 693.679C1313.83 701.531 1317.73 706.892 1321.54 709.585C1325.77 712.591 1330.68 712.183 1332.79 712.048C1333.06 712.034 1333.34 712.003 1333.61 711.963L1333.6 711.968ZM1319.17 695.517C1320.24 693.822 1321.9 692.64 1323.86 692.199C1324.82 691.98 1325.81 691.954 1326.78 692.121C1327.76 692.288 1328.69 692.645 1329.52 693.172C1331.2 694.238 1332.39 695.927 1332.83 697.869C1333.27 699.811 1332.93 701.849 1331.87 703.536C1330.79 705.229 1329.13 706.41 1327.18 706.849C1325.22 707.3 1323.21 706.95 1321.51 705.875C1319.83 704.808 1318.64 703.119 1318.2 701.179C1317.76 699.238 1318.11 697.203 1319.17 695.517V695.517Z" fill="black"/>
<path d="M1001.68 752.148C1001.55 751.475 1001.28 750.836 1000.89 750.268C1000.51 749.7 1000.01 749.215 999.434 748.841C998.566 748.281 997.552 747.988 996.519 748C995.486 748.013 994.479 748.329 993.625 748.911C992.77 749.492 992.106 750.312 991.716 751.268C991.325 752.225 991.225 753.275 991.428 754.288C991.712 755.647 992.524 756.838 993.685 757.599C994.846 758.361 996.261 758.631 997.621 758.351C998.981 758.065 1000.17 757.252 1000.93 756.091C1001.69 754.929 1001.96 753.513 1001.68 752.153L1001.68 752.148ZM996.324 754.343C996.019 753.099 996.446 751.926 997.274 751.724C998.112 751.519 999.027 752.362 999.331 753.606C999.637 754.855 999.217 756.031 998.379 756.236C997.556 756.438 996.63 755.592 996.324 754.343ZM993.16 767.68C993.2 767.709 993.293 767.778 993.362 767.751C995.056 767.036 1002.95 762.324 1004.52 759.831C1004.95 759.149 1005.39 758.578 1005.69 757.561C1008.12 749.351 1006.48 731.694 1006.39 730.864C1006.39 730.864 1006.39 730.782 1006.32 730.739C1006.27 730.703 1006.19 730.718 1006.19 730.718L1002.24 731.603C1002.4 729.717 1003.4 716.066 1000.9 704.103C998.786 693.965 996.504 678.997 979.807 662.503L979.308 662.021C971.381 654.281 962.809 649.695 953.844 648.398C951.02 647.995 944.88 648.022 939.768 650.734C937.529 651.914 935.404 653.606 933.625 655.621C929.603 660.18 927.776 666.625 928.723 672.855C930.059 681.647 935.52 687.213 943.326 687.758C948.707 688.129 955.648 684.741 957.89 677.72C959.711 672.006 957.715 666.834 954.905 664.237C952.463 661.986 949.319 661.143 946.287 661.913C940.905 663.296 939.175 668.65 939.983 671.993C940.221 672.965 940.628 673.895 941.257 674.906C941.476 675.288 941.745 675.638 942.057 675.947L942.166 676.057L942.236 676.121L942.214 676.1C942.654 676.5 943.208 676.751 943.799 676.819C944.39 676.887 944.987 676.767 945.505 676.476C946.116 676.127 946.575 675.562 946.791 674.892C947.007 674.222 946.965 673.496 946.673 672.856L946.587 672.681L946.447 672.443L946.227 672.104C945.848 671.38 945.692 670.808 945.657 670.686C945.587 670.289 945.692 668.226 947.8 667.709L947.825 667.703C948.601 667.513 949.222 667.688 949.556 667.786C950.645 668.157 951.965 669.566 952.317 671.828C952.771 674.795 951.794 677.257 949.327 679.332C947.03 681.256 943.73 681.71 940.929 680.462C938.154 679.235 936.374 676.26 935.788 671.865C935.493 669.71 935.737 667.515 936.5 665.477C937.264 663.44 938.522 661.624 940.161 660.193C943.45 657.268 947.906 656.063 951.792 657.045C961.108 659.395 963.041 667.666 963.366 672.375C963.842 679.351 959.533 688.48 953.064 692.925C952.04 693.638 951.189 694.081 950.415 694.478L949.252 695.073L947.411 703.532C947.375 703.715 947.363 703.778 947.424 703.829C947.501 703.897 947.649 703.812 947.649 703.812C947.806 703.719 947.935 703.578 950.009 702.88C951.851 702.281 956.92 700.73 960.099 702.697C961.347 703.454 962.605 704.764 963.19 705.906C965.612 710.565 966.201 716.577 961.187 723.629C958.593 727.277 957.442 729.029 956.94 729.893C956.94 729.893 956.823 730.085 956.778 730.189C956.723 730.3 956.677 730.377 956.636 730.523C956.564 730.786 954.58 741.04 954.58 741.04C954.58 741.04 954.551 741.167 954.667 741.22C954.79 741.277 954.864 741.178 954.864 741.178C954.921 741.098 960.98 733.486 967.385 733.007C972.488 732.618 972.996 736.629 973.711 742.174C973.937 743.987 974.197 746.048 974.659 748.136C976.041 753.937 978.64 759.92 981.267 763.352C982.957 765.58 984.066 766.992 985.215 767.768C985.601 768.055 986.13 768.121 986.695 768.184L987.069 768.24C987.529 768.296 988.471 768.316 988.98 768.301C989.207 768.294 989.429 768.289 989.525 768.08C989.608 767.885 989.291 767.571 989.291 767.571C987.859 766.129 984.898 762.381 983.848 758.449C982.55 753.569 985.181 742.394 985.464 741.235C986.94 740.144 988.412 739.054 989.875 737.954C986.932 746.209 985.785 752.739 986.494 757.349C987.271 762.481 990.977 765.731 992.533 767.147C992.732 767.333 992.95 767.514 993.165 767.679L993.16 767.68ZM994.962 745.867C996.928 745.462 998.933 745.837 1000.61 746.936C1001.43 747.475 1002.14 748.173 1002.7 748.988C1003.25 749.803 1003.64 750.719 1003.84 751.685C1004.24 753.635 1003.86 755.665 1002.77 757.331C1001.67 758.997 999.967 760.163 998.019 760.574C996.051 760.974 994.047 760.599 992.378 759.504C990.693 758.407 989.55 756.72 989.137 754.746C988.739 752.797 989.129 750.77 990.22 749.106C991.311 747.443 993.016 746.278 994.962 745.867V745.867Z" fill="black"/>
<path d="M230.221 798.452C230.77 798.039 231.23 797.521 231.575 796.927C231.921 796.334 232.144 795.678 232.233 794.997C232.364 793.972 232.19 792.931 231.733 792.004C231.276 791.078 230.556 790.306 229.662 789.787C228.769 789.267 227.743 789.022 226.711 789.083C225.68 789.144 224.689 789.507 223.863 790.128C222.76 790.971 222.037 792.217 221.851 793.593C221.666 794.969 222.033 796.362 222.873 797.468C223.718 798.57 224.965 799.293 226.342 799.479C227.718 799.664 229.112 799.296 230.217 798.456L230.221 798.452ZM225.928 794.567C226.919 793.755 228.16 793.634 228.7 794.293C229.247 794.96 228.881 796.15 227.891 796.961C226.896 797.777 225.654 797.905 225.107 797.238C224.57 796.583 224.934 795.382 225.928 794.567ZM212.532 797.472C212.523 797.52 212.501 797.634 212.556 797.685C213.932 798.904 221.592 803.993 224.518 804.332C225.317 804.423 226.024 804.575 227.071 804.409C235.523 803.051 250.741 793.945 251.453 793.512C251.453 793.512 251.528 793.478 251.536 793.396C251.546 793.333 251.496 793.264 251.496 793.264L248.995 790.087C250.764 789.416 263.507 784.419 273.221 777.005C281.451 770.718 293.967 762.198 301.635 740.016L301.854 739.357C305.413 728.865 305.848 719.153 303.147 710.507C302.292 707.786 299.616 702.259 294.963 698.819C292.931 697.309 290.488 696.123 287.902 695.389C282.054 693.729 275.451 694.864 270.241 698.408C262.887 703.41 260.225 710.738 263.103 718.014C265.092 723.029 271.145 727.826 278.446 726.817C284.387 725.992 288.189 721.959 289.318 718.303C290.295 715.128 289.698 711.929 287.694 709.526C284.122 705.269 278.546 706.02 275.88 708.192C275.106 708.826 274.443 709.595 273.802 710.6C273.553 710.961 273.353 711.355 273.209 711.77L273.157 711.916L273.129 712.007L273.139 711.978C272.968 712.547 272.981 713.156 273.175 713.718C273.369 714.28 273.735 714.766 274.221 715.109C274.799 715.509 275.507 715.679 276.204 715.585C276.902 715.491 277.539 715.139 277.99 714.599L278.111 714.445L278.265 714.216L278.476 713.873C278.966 713.218 279.414 712.83 279.509 712.745C279.837 712.511 281.743 711.715 283.119 713.393L283.135 713.414C283.642 714.032 283.752 714.667 283.808 715.011C283.943 716.152 283.242 717.952 281.354 719.246C278.874 720.937 276.232 721.118 273.295 719.789C270.567 718.548 268.733 715.767 268.649 712.702C268.558 709.669 270.473 706.78 274.184 704.354C276 703.156 278.086 702.429 280.253 702.238C282.421 702.046 284.602 702.397 286.6 703.258C290.658 704.962 293.67 708.461 294.461 712.39C296.364 721.807 289.739 727.121 285.631 729.448C279.545 732.89 269.45 732.945 262.648 729.029C261.562 728.413 260.795 727.837 260.103 727.31L259.065 726.518L250.64 728.51C250.458 728.556 250.396 728.573 250.378 728.65C250.349 728.748 250.49 728.845 250.49 728.845C250.641 728.947 250.824 729.002 252.35 730.571C253.685 731.975 257.273 735.877 256.871 739.594C256.727 741.046 256.089 742.747 255.311 743.767C252.154 747.963 246.986 751.09 238.461 749.613C234.05 748.848 231.972 748.566 230.976 748.486C230.976 748.486 230.753 748.464 230.64 748.468C230.516 748.467 230.426 748.458 230.277 748.485C230.009 748.533 219.903 751.171 219.903 751.171C219.903 751.171 219.776 751.199 219.778 751.328C219.78 751.463 219.902 751.486 219.902 751.486C219.998 751.504 229.48 753.682 232.678 759.252C235.232 763.687 231.834 765.877 227.141 768.916C225.603 769.903 223.856 771.027 222.172 772.346C217.536 776.097 213.262 781.024 211.301 784.876C210.021 787.363 209.226 788.972 209.022 790.343C208.93 790.816 209.098 791.321 209.286 791.859L209.397 792.219C209.545 792.659 209.934 793.517 210.167 793.969C210.271 794.171 210.372 794.369 210.602 794.366C210.813 794.357 210.96 793.935 210.96 793.935C211.643 792.021 213.744 787.732 216.838 785.087C220.678 781.809 231.894 779.357 233.062 779.112C234.684 779.972 236.302 780.829 237.926 781.674C229.209 782.584 222.824 784.369 218.973 786.999C214.679 789.916 213.348 794.661 212.742 796.677C212.66 796.935 212.591 797.211 212.535 797.476L212.532 797.472ZM232.985 789.679C234.2 791.277 234.727 793.247 234.459 795.233C234.328 796.21 234.006 797.152 233.511 798.004C233.015 798.857 232.356 799.603 231.571 800.2C229.986 801.404 227.988 801.932 226.014 801.667C224.04 801.402 222.251 800.366 221.039 798.786C219.829 797.184 219.302 795.214 219.57 793.236C219.831 791.243 220.859 789.483 222.462 788.259C224.048 787.058 226.044 786.534 228.016 786.8C229.987 787.066 231.774 788.101 232.985 789.679V789.679Z" fill="black"/>
<path d="M990.544 415.094C990.075 415.595 989.711 416.185 989.473 416.829C989.235 417.473 989.127 418.158 989.157 418.844C989.205 419.876 989.555 420.872 990.165 421.706C990.775 422.54 991.618 423.176 992.587 423.534C993.556 423.892 994.61 423.956 995.615 423.719C996.621 423.481 997.534 422.953 998.241 422.199C999.182 421.179 999.68 419.827 999.626 418.439C999.572 417.052 998.97 415.743 997.952 414.798C996.93 413.858 995.577 413.36 994.189 413.415C992.801 413.469 991.492 414.072 990.547 415.09L990.544 415.094ZM995.442 418.182C994.606 419.152 993.404 419.485 992.758 418.929C992.105 418.366 992.26 417.131 993.096 416.161C993.936 415.187 995.137 414.846 995.791 415.409C996.432 415.962 996.281 417.208 995.442 418.182ZM1008.14 413.013C1008.14 412.964 1008.14 412.848 1008.08 412.808C1006.51 411.843 998.091 408.15 995.15 408.32C994.347 408.368 993.624 408.339 992.622 408.684C984.529 411.477 971.107 423.067 970.48 423.617C970.48 423.617 970.412 423.663 970.419 423.745C970.42 423.809 970.48 423.868 970.48 423.868L973.492 426.568C971.864 427.533 960.173 434.65 951.881 443.626C944.856 451.237 933.995 461.785 930.262 484.956L930.159 485.643C928.461 496.591 929.705 506.232 933.854 514.285C935.165 516.818 938.752 521.801 943.929 524.388C946.19 525.526 948.801 526.273 951.475 526.551C957.522 527.179 963.83 524.924 968.352 520.535C974.735 514.342 976.095 506.665 972.007 499.993C969.184 495.396 962.395 491.713 955.377 493.964C949.667 495.799 946.616 500.428 946.133 504.224C945.718 507.519 946.858 510.568 949.245 512.589C953.497 516.168 958.86 514.468 961.113 511.869C961.765 511.111 962.286 510.239 962.744 509.139C962.928 508.74 963.057 508.318 963.127 507.884L963.153 507.732L963.165 507.637L963.16 507.668C963.23 507.077 963.114 506.48 962.826 505.96C962.538 505.44 962.093 505.023 961.556 504.77C960.916 504.475 960.19 504.429 959.519 504.642C958.849 504.855 958.282 505.311 957.93 505.921L957.838 506.093L957.725 506.345L957.577 506.72C957.207 507.449 956.832 507.909 956.754 508.009C956.471 508.296 954.73 509.408 953.086 507.992L953.066 507.975C952.461 507.453 952.243 506.847 952.128 506.517C951.798 505.416 952.179 503.523 953.816 501.923C955.968 499.83 958.54 499.196 961.662 500C964.562 500.753 966.848 503.176 967.458 506.181C968.07 509.153 966.682 512.329 963.444 515.358C961.861 516.85 959.932 517.926 957.83 518.487C955.728 519.049 953.519 519.079 951.402 518.575C947.111 517.596 943.542 514.668 942.085 510.934C938.589 501.985 944.201 495.609 947.846 492.61C953.249 488.171 963.183 486.378 970.558 489.065C971.734 489.484 972.588 489.92 973.361 490.32L974.52 490.92L982.476 487.507C982.647 487.431 982.705 487.404 982.71 487.325C982.722 487.223 982.566 487.152 982.566 487.152C982.399 487.078 982.21 487.054 980.437 485.771C978.88 484.619 974.673 481.393 974.429 477.662C974.321 476.207 974.657 474.422 975.247 473.283C977.634 468.606 982.187 464.635 990.839 464.623C995.315 464.617 997.41 464.536 998.405 464.443C998.405 464.443 998.629 464.427 998.74 464.403C998.863 464.383 998.952 464.376 999.095 464.324C999.35 464.23 1008.85 459.892 1008.85 459.892C1008.85 459.892 1008.97 459.842 1008.95 459.716C1008.92 459.583 1008.8 459.581 1008.8 459.581C1008.7 459.58 998.984 459.068 994.875 454.131C991.595 450.202 994.566 447.46 998.665 443.658C1000.01 442.421 1001.54 441.013 1002.97 439.424C1006.89 434.93 1010.25 429.341 1011.52 425.209C1012.35 422.539 1012.86 420.816 1012.82 419.431C1012.83 418.95 1012.58 418.481 1012.3 417.983L1012.13 417.647C1011.91 417.24 1011.38 416.461 1011.07 416.056C1010.93 415.875 1010.8 415.697 1010.57 415.74C1010.37 415.786 1010.3 416.226 1010.3 416.226C1009.95 418.229 1008.62 422.816 1006.03 425.954C1002.81 429.845 992.185 434.192 991.077 434.634C989.331 434.066 987.589 433.501 985.844 432.948C994.274 430.551 1000.26 427.693 1003.6 424.439C1007.32 420.826 1007.82 415.923 1008.07 413.833C1008.1 413.564 1008.12 413.281 1008.13 413.01L1008.14 413.013ZM989.332 424.212C987.861 422.847 987.002 420.997 986.924 418.995C986.884 418.01 987.04 417.027 987.381 416.102C987.722 415.177 988.243 414.328 988.913 413.605C990.267 412.145 992.145 411.281 994.135 411.202C996.125 411.123 998.065 411.836 999.531 413.184C1001 414.553 1001.86 416.403 1001.93 418.397C1002.02 420.406 1001.31 422.316 999.943 423.799C998.588 425.254 996.711 426.115 994.723 426.192C992.736 426.269 990.798 425.558 989.332 424.212V424.212Z" fill="black"/>
<path d="M1382.57 80.7443C1382 80.3747 1381.35 80.1242 1380.67 80.0075C1380 79.8907 1379.3 79.91 1378.63 80.0643C1377.63 80.299 1376.71 80.8251 1376 81.5769C1375.3 82.3286 1374.82 83.2727 1374.65 84.291C1374.47 85.3093 1374.6 86.3567 1375.02 87.3022C1375.44 88.2477 1376.12 89.0494 1376.99 89.607C1378.17 90.3466 1379.59 90.5901 1380.94 90.2841C1382.29 89.978 1383.47 89.1474 1384.22 87.9744C1384.95 86.7982 1385.2 85.3772 1384.89 84.0226C1384.58 82.668 1383.75 81.4901 1382.58 80.747L1382.57 80.7443ZM1380.43 86.1233C1379.32 85.4783 1378.78 84.3569 1379.21 83.6207C1379.64 82.8755 1380.88 82.8035 1381.99 83.4485C1383.1 84.0962 1383.66 85.2157 1383.22 85.961C1382.79 86.6925 1381.54 86.771 1380.43 86.1233ZM1387.83 97.6649C1387.87 97.6562 1387.99 97.6375 1388.02 97.5681C1388.68 95.8532 1390.78 86.8994 1390.07 84.039C1389.88 83.2581 1389.78 82.5423 1389.26 81.6194C1385.04 74.1714 1371.19 63.086 1370.54 62.5696C1370.54 62.5696 1370.48 62.5114 1370.4 62.5324C1370.34 62.5449 1370.29 62.6154 1370.29 62.6154L1368.19 66.0686C1366.94 64.6438 1357.81 54.4448 1347.48 47.9273C1338.71 42.4074 1326.36 33.6497 1302.9 34.2011L1302.2 34.2253C1291.13 34.5503 1281.88 37.5301 1274.72 43.0777C1272.46 44.8281 1268.22 49.2632 1266.62 54.8241C1265.91 57.2548 1265.65 59.9586 1265.86 62.6382C1266.35 68.6983 1269.72 74.4905 1274.85 78.1363C1282.11 83.2841 1289.9 83.2228 1295.72 77.9872C1299.73 74.3738 1302.11 67.0276 1298.62 60.537C1295.77 55.2574 1290.67 53.1007 1286.85 53.3178C1283.53 53.5104 1280.74 55.1859 1279.19 57.9014C1276.44 62.7342 1279.09 67.6977 1282.06 69.4394C1282.92 69.9431 1283.87 70.296 1285.04 70.5463C1285.46 70.6542 1285.9 70.7039 1286.34 70.6941L1286.5 70.6922L1286.59 70.6865L1286.56 70.6868C1287.15 70.6487 1287.72 70.4248 1288.18 70.0469C1288.64 69.669 1288.97 69.1563 1289.12 68.5813C1289.29 67.8992 1289.2 67.1768 1288.87 66.5561C1288.54 65.9353 1287.99 65.461 1287.33 65.2264L1287.14 65.167L1286.87 65.1023L1286.48 65.0247C1285.69 64.7941 1285.17 64.5093 1285.06 64.4499C1284.72 64.2244 1283.31 62.7155 1284.41 60.8409L1284.42 60.818C1284.82 60.1276 1285.38 59.8029 1285.68 59.6302C1286.7 59.1054 1288.64 59.1345 1290.51 60.4525C1292.96 62.187 1294.05 64.6005 1293.83 67.8166C1293.62 70.8056 1291.65 73.4946 1288.81 74.6424C1286 75.7853 1282.62 74.9992 1279.05 72.3675C1277.3 71.0829 1275.89 69.3819 1274.95 67.4174C1274.02 65.4528 1273.58 63.2865 1273.69 61.1133C1273.87 56.7158 1276.1 52.6729 1279.51 50.5603C1287.67 45.492 1294.96 49.8477 1298.58 52.8855C1303.93 57.3892 1307.5 66.8306 1306.2 74.5716C1306 75.8041 1305.73 76.7234 1305.48 77.5562L1305.1 78.8055L1309.9 86.0065C1310.01 86.1604 1310.05 86.2126 1310.13 86.2034C1310.23 86.1957 1310.27 86.03 1310.27 86.03C1310.31 85.8525 1310.3 85.662 1311.24 83.685C1312.09 81.9441 1314.49 77.22 1318.12 76.3001C1319.53 75.9282 1321.34 75.9334 1322.57 76.3064C1327.61 77.8014 1332.34 81.554 1333.93 90.0592C1334.75 94.4594 1335.21 96.505 1335.48 97.4664C1335.48 97.4664 1335.54 97.6836 1335.58 97.7883C1335.63 97.9049 1335.65 97.9917 1335.73 98.1224C1335.87 98.3566 1341.86 106.908 1341.86 106.908C1341.86 106.908 1341.93 107.017 1342.05 106.97C1342.18 106.921 1342.16 106.799 1342.16 106.799C1342.14 106.703 1340.87 97.0561 1344.98 92.1163C1348.25 88.1755 1351.48 90.5963 1355.97 93.9345C1357.43 95.0316 1359.09 96.2769 1360.92 97.3948C1366.05 100.431 1372.16 102.718 1376.45 103.212C1379.23 103.545 1381.01 103.728 1382.37 103.441C1382.84 103.362 1383.26 103.028 1383.7 102.665L1384 102.435C1384.36 102.143 1385.03 101.479 1385.37 101.103C1385.52 100.935 1385.67 100.771 1385.59 100.557C1385.51 100.362 1385.06 100.371 1385.06 100.371C1383.03 100.4 1378.28 99.926 1374.72 97.9494C1370.31 95.4935 1364.1 85.8376 1363.46 84.829C1363.7 83.0088 1363.94 81.193 1364.16 79.3766C1368.06 87.2281 1371.96 92.5898 1375.76 95.282C1380 98.2885 1384.91 97.8806 1387.01 97.7452C1387.28 97.7318 1387.56 97.7001 1387.83 97.6604L1387.83 97.6649ZM1373.39 81.2144C1374.46 79.5188 1376.13 78.3378 1378.08 77.8964C1379.04 77.6776 1380.04 77.6509 1381.01 77.8179C1381.98 77.985 1382.91 78.3424 1383.74 78.8697C1385.42 79.9352 1386.62 81.6239 1387.06 83.5661C1387.5 85.5083 1387.15 87.546 1386.09 89.2333C1385.01 90.9262 1383.35 92.1073 1381.4 92.5467C1379.44 92.9972 1377.44 92.6476 1375.73 91.5727C1374.05 90.5048 1372.86 88.8165 1372.42 86.8761C1371.99 84.9357 1372.33 82.9005 1373.39 81.2144V81.2144Z" fill="black"/>
</svg>
